<?xml version="1.0" standalone="no"?>
<!DOCTYPE svg PUBLIC "-//W3C//DTD SVG 20010904//EN"
 "http://www.w3.org/TR/2001/REC-SVG-20010904/DTD/svg10.dtd">
<svg version="1.0" xmlns="http://www.w3.org/2000/svg"
 width="500.000000pt" height="500.000000pt" viewBox="0 0 500.000000 500.000000"
 preserveAspectRatio="xMidYMid meet">
<metadata>
Created by potrace 1.16, written by Peter Selinger 2001-2019
</metadata>
<g transform="translate(0.000000,500.000000) scale(0.100000,-0.100000)"
fill="#000000" stroke="none">
<path d="M0 2500 l0 -2500 2500 0 2500 0 0 2500 0 2500 -2500 0 -2500 0 0
-2500z m2590 2051 c-29 -8 -159 -6 -167 3 -4 3 38 6 93 5 56 -1 88 -4 74 -8z
m180 -15 c0 -2 -7 -9 -15 -16 -13 -11 -14 -10 -9 4 5 14 24 23 24 12z m143
-23 c-7 -2 -19 -2 -25 0 -7 3 -2 5 12 5 14 0 19 -2 13 -5z m-849 -146 c-6 -16
-26 -28 -59 -32 -11 -2 -33 -6 -50 -10 -29 -6 -29 -6 -11 9 11 9 31 16 45 16
14 0 37 9 51 20 28 21 33 20 24 -3z m969 -17 c15 0 27 -5 27 -10 0 -12 -73 -5
-98 9 -8 5 -17 16 -18 24 -2 13 3 12 29 -4 18 -10 44 -19 60 -19z m-1119 -35
c-4 -8 -16 -15 -28 -15 -20 0 -20 1 4 14 14 8 26 14 27 15 1 1 0 -6 -3 -14z
m1211 -5 c8 -13 -5 -13 -25 0 -13 8 -13 10 2 10 9 0 20 -4 23 -10z m60 -28
c-3 -3 -11 0 -18 7 -9 10 -8 11 6 5 10 -3 15 -9 12 -12z m-641 -94 c-2 -15 7
-18 46 -18 49 0 80 -7 80 -19 0 -5 -315 -6 -345 -1 -23 4 53 19 107 21 32 1
61 6 64 11 3 5 2 8 -3 7 -17 -3 -24 1 -18 12 4 5 21 9 38 7 23 -2 32 -8 31
-20z m-985 -5 c-6 -7 -18 -13 -26 -13 -11 0 -11 3 -1 13 7 8 18 14 25 14 9 0
10 -4 2 -14z m1917 3 c10 -8 15 -18 11 -22 -4 -4 -17 2 -29 14 -25 25 -13 30
18 8z m-1363 -13 c-7 -2 -19 -2 -25 0 -7 3 -2 5 12 5 14 0 19 -2 13 -5z m832
-3 c7 -12 -2 -12 -30 0 -19 8 -19 9 2 9 12 1 25 -3 28 -9z m-645 -17 c-8 -3
-36 -28 -64 -55 -58 -57 -77 -56 -21 2 22 22 35 40 30 40 -6 0 -3 5 5 10 8 5
26 9 40 9 15 0 19 -3 10 -6z m455 -3 c13 -6 15 -9 5 -9 -9 -1 4 -17 30 -41 25
-21 42 -39 37 -40 -15 0 -77 46 -83 63 -7 22 -23 22 -40 0 -17 -25 -28 -10
-12 16 14 22 30 25 63 11z m-1445 -25 c0 -17 -27 -32 -37 -21 -4 3 2 13 13 21
24 18 24 18 24 0z m917 9 c-3 -3 -12 -4 -19 -1 -8 3 -5 6 6 6 11 1 17 -2 13
-5z m96 -15 c4 -16 3 -18 -9 -8 -16 13 -19 29 -5 29 5 0 11 -9 14 -21z m484
15 c-3 -3 -12 -4 -19 -1 -8 3 -5 6 6 6 11 1 17 -2 13 -5z m921 -23 c3 -8 -1
-12 -9 -9 -7 2 -15 10 -17 17 -3 8 1 12 9 9 7 -2 15 -10 17 -17z m-723 0 c3
-5 1 -12 -5 -16 -5 -3 -10 1 -10 9 0 18 6 21 15 7z m-635 -40 c0 -10 -8 -21
-19 -24 -15 -3 -18 1 -17 19 1 29 36 34 36 5z m300 -1 c0 -11 -7 -20 -15 -20
-8 0 -15 9 -15 20 0 11 7 20 15 20 8 0 15 -9 15 -20z m-650 -5 c-7 -8 -21 -15
-31 -15 -9 0 -24 -6 -32 -14 -7 -8 -25 -16 -38 -18 -16 -2 -29 -15 -40 -36 -8
-19 -30 -41 -47 -49 -31 -15 -43 -33 -21 -33 6 0 19 5 30 11 11 5 28 9 37 7 9
-2 -18 -16 -60 -31 -58 -22 -83 -37 -103 -63 -14 -19 -30 -34 -35 -34 -4 0
-26 -12 -49 -26 -32 -22 -38 -30 -31 -44 9 -16 7 -17 -15 -6 -14 6 -25 14 -25
18 0 3 21 20 48 37 50 32 92 66 92 74 0 8 -142 -43 -159 -57 -7 -5 -23 -10
-35 -11 -12 0 -25 -10 -31 -23 -5 -12 -16 -20 -23 -17 -11 4 -99 -80 -304
-295 -24 -24 -44 -49 -44 -55 -1 -5 -2 -20 -3 -32 -1 -16 -5 -21 -17 -16 -12
4 -14 14 -10 36 4 22 57 82 183 211 202 205 231 229 362 291 101 49 133 54 54
9 -75 -42 -95 -55 -91 -59 4 -5 109 29 137 45 27 14 100 87 123 121 10 16 40
35 75 48 32 13 65 26 73 31 8 5 21 9 29 9 11 1 11 -2 1 -14z m1000 5 c0 -5 8
-10 18 -10 32 -1 127 -56 126 -73 -1 -9 12 -26 30 -36 17 -11 41 -33 53 -49
16 -22 42 -37 90 -53 37 -12 74 -24 82 -27 39 -14 -8 21 -70 54 -107 57 -73
53 47 -5 106 -51 171 -94 207 -135 10 -12 85 -88 165 -171 159 -162 176 -185
166 -217 -6 -21 -7 -21 -20 -3 -8 10 -14 28 -14 40 0 13 -15 33 -39 51 -22 16
-37 32 -35 35 5 9 -252 262 -275 271 -10 3 -21 14 -25 23 -4 12 -14 16 -31 13
-13 -3 -26 -1 -27 4 -4 12 -101 49 -143 55 -27 4 -28 3 -10 -8 11 -7 26 -19
33 -26 7 -7 33 -25 58 -39 41 -24 57 -44 35 -44 -5 0 -17 -3 -25 -6 -11 -4
-15 -2 -11 7 7 18 -61 73 -81 65 -8 -3 -14 1 -14 9 0 8 -4 15 -10 15 -5 0 -10
7 -10 15 0 16 -77 59 -127 70 -18 3 -36 11 -39 17 -7 11 10 9 66 -8 25 -7 25
-7 7 14 -10 11 -30 23 -43 26 -14 4 -22 10 -20 15 8 12 -33 61 -50 61 -9 0
-22 7 -30 15 -9 8 -26 15 -39 15 -25 0 -39 12 -28 24 10 10 33 7 33 -4z m30
-56 c0 -11 -44 -24 -62 -18 -20 6 -20 8 -5 19 14 10 67 10 67 -1z m-1025 -4
l20 -9 -20 -1 c-29 -3 -49 0 -59 11 -13 11 31 11 59 -1z m115 -20 c-7 -4 -10
-12 -6 -18 3 -6 2 -13 -3 -16 -5 -3 -12 1 -15 10 -4 12 -15 15 -36 12 -17 -3
-30 -1 -30 4 0 4 13 8 28 8 16 0 37 6 48 14 12 9 20 11 23 4 2 -6 -2 -14 -9
-18z m455 -14 c-29 -38 -54 -50 -33 -16 11 17 10 22 -2 30 -16 10 -9 14 35 23
30 5 30 2 0 -37z m-251 25 c3 -5 -15 -11 -42 -13 -53 -5 -76 1 -46 13 27 11
82 11 88 0z m111 -2 c4 -5 1 -9 -5 -9 -8 0 -10 -9 -6 -25 5 -19 3 -23 -9 -19
-8 4 -15 11 -15 17 0 6 -7 18 -15 27 -14 16 -13 17 15 18 16 0 32 -4 35 -9z
m300 1 c14 -6 16 -9 5 -10 -33 -4 -86 2 -94 11 -13 12 61 11 89 -1z m173 -8
c17 -2 32 -8 32 -12 0 -4 -12 -5 -27 -2 -17 3 -30 -1 -38 -11 -14 -20 -30 -9
-31 21 0 17 3 21 15 16 9 -4 31 -9 49 -12z m-908 -37 c-14 -8 -34 -14 -45 -14
-20 0 -20 0 -1 14 11 8 31 15 45 15 l26 -1 -25 -14z m225 -6 c15 -15 -30 -10
-66 6 l-34 15 45 -6 c25 -4 49 -10 55 -15z m792 2 c17 -10 16 -10 -3 -11 -11
0 -29 7 -40 15 -18 14 -18 14 3 10 13 -2 31 -8 40 -14z m198 1 c-3 -3 -11 0
-18 7 -9 10 -8 11 6 5 10 -3 15 -9 12 -12z m-420 -2 c-3 -5 -17 -10 -31 -10
-14 0 -22 4 -19 10 3 6 17 10 31 10 14 0 22 -4 19 -10z m-500 -21 c12 -19 -3
-22 -27 -5 l-22 16 21 0 c12 0 25 -5 28 -11z m419 1 c-6 -6 -33 -16 -60 -23
-34 -9 -48 -17 -45 -27 2 -8 3 -23 3 -32 0 -11 14 -22 41 -32 195 -69 221 -76
227 -66 5 8 9 7 13 -4 9 -22 133 -72 186 -74 13 -1 33 -10 45 -21 11 -11 47
-30 80 -42 57 -22 59 -22 72 -4 8 10 14 27 14 38 0 11 4 15 11 11 6 -4 9 -19
5 -36 -5 -23 1 -41 25 -77 l31 -46 -31 29 c-25 24 -34 27 -43 18 -19 -19 302
-335 334 -330 25 3 28 25 14 98 -3 19 6 0 21 -42 18 -49 42 -92 67 -120 22
-24 53 -59 70 -78 l31 -35 -30 25 c-16 13 -46 40 -66 60 -116 112 -148 106
-95 -19 13 -31 36 -96 51 -146 15 -49 33 -103 40 -120 28 -67 45 -145 45 -203
0 -55 2 -62 20 -62 11 0 20 -4 20 -8 0 -5 -9 -17 -20 -27 -25 -23 -25 -50 0
-77 27 -29 27 -53 1 -38 -19 10 -20 7 -20 -48 0 -32 -7 -85 -16 -117 -15 -49
-15 -62 -5 -79 12 -19 12 -20 -3 -7 -14 11 -18 11 -22 0 -23 -63 -65 -195 -65
-206 0 -8 -9 -35 -21 -60 -11 -24 -23 -61 -27 -81 -6 -31 -34 -63 -168 -192
-89 -85 -162 -161 -163 -168 0 -7 -4 -11 -9 -8 -4 2 -25 -7 -47 -20 -48 -29
-21 -33 30 -4 20 11 42 20 49 20 8 0 17 7 20 16 4 9 9 15 12 12 2 -3 -5 -21
-16 -41 -14 -23 -19 -44 -15 -60 4 -14 2 -28 -3 -31 -6 -3 -13 7 -17 24 -4 16
-11 30 -17 30 -32 0 -119 -36 -148 -61 -34 -31 -46 -35 -52 -20 -1 5 -44 -6
-94 -25 -84 -33 -90 -37 -89 -62 2 -20 1 -21 -2 -4 -5 28 -20 28 -96 -2 -34
-13 -86 -32 -114 -41 -60 -19 -70 -29 -52 -51 10 -12 10 -15 -1 -12 -23 5 -21
-18 2 -30 22 -10 22 -11 -9 -11 -17 -1 -44 4 -59 9 -21 8 -29 8 -35 -2 -6 -10
-11 -10 -20 -1 -8 8 -18 9 -31 2 -12 -7 -18 -6 -18 2 0 7 -7 8 -17 4 -21 -8
-123 -23 -123 -18 0 2 10 7 22 12 16 6 23 17 24 39 2 36 1 37 -166 92 -69 23
-156 56 -195 73 -38 16 -83 30 -100 29 -18 0 -39 8 -52 20 -13 12 -53 32 -90
44 -62 21 -68 22 -71 6 -9 -56 -14 -66 -22 -52 -4 7 -4 24 1 38 7 17 6 30 -3
41 -7 9 -19 27 -27 40 l-13 24 28 -22 c19 -15 31 -18 38 -11 7 7 -31 52 -124
146 -74 75 -152 149 -172 164 -21 15 -35 30 -32 32 8 9 -20 100 -33 105 -7 3
-13 17 -13 32 0 15 -24 99 -54 187 -36 107 -56 186 -61 237 -6 64 -10 76 -21
66 -18 -15 -18 0 1 39 14 28 14 34 0 68 -18 44 -18 44 -1 44 10 0 16 20 20 68
4 37 14 89 23 115 l15 49 -28 31 -29 32 27 -24 c16 -14 30 -22 33 -19 12 12
75 214 75 240 0 15 4 28 9 28 12 0 44 97 37 109 -4 5 0 14 9 18 8 5 85 78 170
163 103 102 152 157 145 164 -6 6 -19 2 -36 -15 l-27 -24 25 44 c20 34 24 49
18 72 -5 16 -5 31 0 34 9 6 20 -18 20 -46 0 -15 6 -18 28 -15 40 5 114 36 138
58 12 10 32 19 45 20 25 0 28 2 115 37 46 18 85 32 249 86 101 34 106 36 100
56 -4 11 -2 19 4 19 21 0 11 21 -14 30 -35 13 -31 18 15 16 22 0 40 -5 40 -10
0 -5 16 -6 35 -3 19 3 37 1 41 -4 4 -6 16 -1 31 13 18 17 22 18 17 5 -4 -13
-1 -17 14 -17 12 0 24 5 27 10 3 6 16 7 29 4 13 -3 38 1 57 10 41 17 78 21 63
6z m-578 -35 c12 4 11 2 -3 -6 -13 -7 -23 -19 -23 -28 0 -9 -6 -23 -13 -32
-10 -14 -16 -15 -30 -4 -21 15 -22 25 -3 25 16 0 26 21 26 53 1 21 2 21 14 4
8 -10 21 -15 32 -12z m755 -39 c2 -2 13 -8 24 -14 19 -11 19 -11 -2 -12 -13 0
-23 -4 -23 -10 0 -5 -9 -1 -20 10 -11 11 -17 26 -14 35 4 9 0 15 -9 15 -9 0
-19 5 -23 11 -4 7 0 9 14 5 13 -5 22 -1 27 11 6 15 9 12 15 -15 4 -18 9 -34
11 -36z m-911 40 c0 -3 -4 -8 -10 -11 -5 -3 -10 -1 -10 4 0 6 5 11 10 11 6 0
10 -2 10 -4z m1030 -6 c0 -5 -2 -10 -4 -10 -3 0 -8 5 -11 10 -3 6 -1 10 4 10
6 0 11 -4 11 -10z m-740 -30 c0 -5 -8 -10 -17 -10 -15 0 -16 2 -3 10 19 12 20
12 20 0z m455 0 c3 -5 -3 -10 -15 -10 -12 0 -18 5 -15 10 3 6 10 10 15 10 5 0
12 -4 15 -10z m-745 -25 c0 -16 -9 -19 -35 -9 -13 5 -14 8 -3 15 20 13 38 11
38 -6z m1040 5 c23 -14 5 -23 -32 -15 -29 7 -30 9 -13 16 27 10 28 10 45 -1z
m-1169 -19 c-8 -5 -20 -7 -28 -4 -21 8 -15 13 15 13 20 0 23 -3 13 -9z m1292
2 c-7 -2 -21 -2 -30 0 -10 3 -4 5 12 5 17 0 24 -2 18 -5z m-2158 -38 c-22 -19
-44 -34 -49 -35 -5 0 11 16 35 35 57 45 66 45 14 0z m3029 -13 c16 -12 25 -22
20 -22 -5 0 -23 13 -39 28 -34 30 -25 27 19 -6z m-2334 -48 c0 -14 -4 -23 -10
-19 -5 3 -10 15 -10 26 0 10 5 19 10 19 6 0 10 -12 10 -26z m1623 1 c-7 -21
-13 -19 -13 6 0 11 4 18 10 14 5 -3 7 -12 3 -20z m-1879 -90 c-9 -14 -20 -22
-25 -19 -5 3 -1 16 8 29 23 30 38 21 17 -10z m2141 -1 c21 -32 10 -30 -26 5
-22 23 -25 28 -9 24 10 -3 26 -16 35 -29z m-2815 -13 c-5 -11 -10 -38 -10 -60
0 -23 -4 -40 -9 -38 -5 1 -17 -7 -26 -18 -16 -19 -16 -19 -5 3 7 13 14 35 16
49 5 28 31 83 40 83 2 0 0 -9 -6 -19z m3501 -48 c1 -13 2 -29 3 -35 1 -7 -6
-13 -14 -13 -11 0 -14 10 -12 38 1 20 -2 47 -8 60 -10 20 -9 20 9 -3 11 -14
21 -35 22 -47z m-2896 17 c-3 -5 -12 -10 -18 -10 -7 0 -6 4 3 10 19 12 23 12
15 0z m2360 -60 c3 -6 -1 -7 -9 -4 -18 7 -21 14 -7 14 6 0 13 -4 16 -10z
m-2245 -20 c0 -5 -10 -15 -22 -21 -23 -12 -23 -12 -4 10 21 23 26 26 26 11z
m2810 -11 c0 -6 -4 -7 -10 -4 -5 3 -10 11 -10 16 0 6 5 7 10 4 6 -3 10 -11 10
-16z m-740 -15 c0 -2 -9 0 -20 6 -11 6 -20 13 -20 16 0 2 9 0 20 -6 11 -6 20
-13 20 -16z m-2168 -26 c-24 -24 -30 -10 -10 22 8 13 16 16 22 10 7 -7 3 -18
-12 -32z m2238 4 c0 -12 -3 -13 -12 -4 -6 6 -13 19 -14 27 -2 13 1 14 12 4 8
-6 14 -19 14 -27z m627 -49 c-3 -10 -5 -4 -5 12 0 17 2 24 5 18 2 -7 2 -21 0
-30z m-2707 3 c0 -2 -8 -10 -17 -17 -16 -13 -17 -12 -4 4 13 16 21 21 21 13z
m2703 -41 c-3 -9 -8 -14 -10 -11 -3 3 -2 9 2 15 9 16 15 13 8 -4z m-723 -20
c13 -14 21 -25 18 -25 -2 0 -15 11 -28 25 -13 14 -21 25 -18 25 2 0 15 -11 28
-25z m-2040 1 c0 -2 -8 -10 -17 -17 -16 -13 -17 -12 -4 4 13 16 21 21 21 13z
m-146 -82 c-15 -38 -15 -47 -4 -54 11 -7 -2 -25 -54 -75 -81 -79 -100 -80 -26
-1 28 30 51 58 51 63 -1 22 43 146 47 130 2 -9 -4 -38 -14 -63z m2626 -24 c5
-28 4 -38 -2 -32 -6 6 -14 29 -18 52 -5 28 -4 38 2 32 6 -6 14 -29 18 -52z
m-2914 6 c-4 -19 -12 -38 -18 -42 -7 -5 -9 5 -3 32 4 21 9 43 12 47 10 17 15
-3 9 -37z m2866 -224 c-4 -55 -2 -65 18 -87 l23 -24 -31 9 c-33 9 -48 0 -39
-24 3 -7 1 -19 -4 -27 -7 -11 -9 -11 -9 4 0 10 -7 20 -16 24 -13 5 -12 9 5 27
15 16 24 47 33 115 14 104 29 91 20 -17z m-2811 -32 c6 0 9 -9 7 -19 -2 -11 8
-31 21 -45 20 -21 21 -26 8 -26 -16 0 -22 -12 -17 -35 1 -5 -2 -6 -7 -2 -4 5
-9 17 -9 28 -1 10 -2 24 -3 30 0 6 -10 9 -21 6 -20 -5 -28 7 -11 18 6 3 7 35
4 74 -3 38 -2 78 3 88 6 13 10 -2 12 -49 2 -38 7 -68 13 -68z m-176 -108 c-12
-13 -24 22 -12 37 10 12 13 11 15 -8 2 -13 1 -26 -3 -29z m3155 12 c0 -8 -4
-14 -10 -14 -5 0 -10 9 -10 21 0 11 5 17 10 14 6 -3 10 -13 10 -21z m-3092
-46 c-6 -18 -28 -21 -28 -4 0 9 7 16 16 16 9 0 14 -5 12 -12z m2982 -78 c0 -8
12 -49 25 -90 29 -86 28 -83 13 -78 -6 2 -13 14 -14 25 -5 32 -45 133 -52 133
-4 0 -7 23 -7 51 l0 50 17 -38 c9 -21 17 -45 18 -53z m58 72 c2 -7 -3 -12 -12
-12 -9 0 -16 7 -16 16 0 17 22 14 28 -4z m-2982 -39 c-1 -21 -9 -54 -18 -74
-8 -19 -26 -69 -39 -110 -13 -41 -25 -66 -27 -57 -2 9 11 58 27 108 17 50 31
97 31 105 0 13 20 65 25 65 1 0 1 -17 1 -37z m3079 -95 c0 -37 -4 -58 -11 -58
-6 0 -22 -37 -34 -81 -23 -81 -23 -82 -6 -148 10 -36 26 -85 37 -108 23 -50
24 -70 5 -113 -10 -25 -14 -29 -19 -15 -4 9 -3 25 3 35 6 11 6 29 1 47 -5 15
-19 61 -31 100 -12 40 -26 71 -30 68 -4 -2 -7 12 -7 33 1 20 -3 51 -7 67 -8
28 -7 29 7 10 14 -18 16 -16 32 40 10 33 24 80 31 104 9 29 10 49 4 61 -6 10
-7 26 -3 35 11 31 27 -14 28 -77z m-3232 68 c3 -7 1 -18 -5 -24 -17 -17 39
-212 60 -212 4 0 8 -24 8 -52 0 -29 7 -69 16 -88 9 -19 26 -69 39 -110 12 -41
26 -77 29 -80 4 -3 7 -21 8 -40 l0 -35 -13 30 c-14 32 -58 169 -72 223 -16 63
-26 48 -75 -107 -8 -25 -7 -39 3 -57 9 -18 10 -27 1 -36 -19 -19 -40 49 -29
95 5 20 13 37 17 37 4 0 17 38 30 85 l23 85 -23 78 c-12 42 -28 82 -35 87 -16
13 -20 58 -10 103 8 34 19 41 28 18z m3106 -467 c-12 -41 -24 -87 -26 -104 -3
-16 -9 -32 -13 -35 -4 -3 -12 -18 -17 -35 -10 -28 -11 -26 -9 20 0 28 7 56 13
63 7 7 22 46 34 85 24 79 29 91 35 84 3 -2 -5 -38 -17 -78z m-3011 -187 c2 -7
-2 -10 -12 -6 -9 3 -16 11 -16 16 0 13 23 5 28 -10z m3042 9 c0 -5 -7 -11 -15
-15 -15 -5 -20 5 -8 17 9 10 23 9 23 -2z m-2910 -46 c0 -10 6 -12 18 -8 12 5
9 -2 -10 -25 -15 -18 -25 -39 -22 -46 3 -8 1 -17 -5 -21 -6 -3 -11 -33 -11
-66 0 -37 -4 -59 -11 -59 -8 0 -10 25 -7 80 3 59 1 83 -9 91 -7 6 -10 15 -7
21 3 5 11 5 19 -2 17 -14 39 13 32 40 -3 11 -1 18 4 14 5 -3 9 -12 9 -19z
m2711 8 c13 -16 12 -17 -3 -4 -17 13 -22 21 -14 21 2 0 10 -8 17 -17z m-2901
-24 c0 -11 -4 -17 -10 -14 -5 3 -10 15 -10 26 0 11 5 17 10 14 6 -3 10 -15 10
-26z m2956 9 c-1 -18 4 -23 22 -22 17 0 21 -3 15 -15 -4 -9 -7 -51 -8 -93 0
-97 -11 -110 -20 -24 -4 36 -11 64 -15 61 -4 -2 -5 6 -3 18 3 14 -2 29 -11 36
-19 16 -20 27 -3 46 17 20 25 18 23 -7z m190 -15 c-11 -11 -19 6 -11 24 8 17
8 17 12 0 3 -10 2 -21 -1 -24z m94 -91 c0 -15 -2 -15 -10 -2 -13 20 -13 33 0
25 6 -3 10 -14 10 -23z m-361 -49 c-7 -10 -36 -43 -65 -73 -39 -40 -56 -67
-63 -100 -6 -25 -19 -70 -30 -100 -16 -42 -20 -49 -21 -28 0 15 9 50 19 78 17
44 17 51 4 58 -8 5 -14 12 -14 15 2 12 46 53 53 50 3 -2 32 24 64 57 56 59 79
77 53 43z m-2556 -62 c20 -23 39 -41 42 -41 11 0 42 -35 49 -54 5 -16 4 -17
-9 -6 -19 16 -19 4 0 -50 8 -23 15 -52 14 -64 0 -11 -14 17 -30 64 -18 53 -41
98 -62 120 -78 87 -84 94 -61 82 11 -6 37 -29 57 -51z m-203 -160 c0 -40 -17
-11 -24 39 l-6 45 15 -30 c8 -16 14 -41 15 -54z m2900 -11 c-17 -33 -20 -20
-7 35 11 46 12 48 15 18 2 -18 -2 -42 -8 -53z m-2485 -50 c10 -11 16 -20 13
-20 -3 0 -13 9 -23 20 -10 11 -16 20 -13 20 3 0 13 -9 23 -20z m2085 17 c0 -2
-9 -12 -20 -22 -24 -21 -27 -14 -4 9 15 15 24 20 24 13z m377 -49 c-4 -13 -80
-97 -170 -188 -90 -91 -166 -170 -168 -175 -6 -15 -96 -85 -108 -85 -6 0 -11
-4 -11 -10 0 -5 -7 -10 -15 -10 -8 0 -55 -20 -104 -45 -49 -25 -92 -45 -96
-45 -17 0 11 21 67 50 35 18 72 39 83 47 l20 15 -20 -6 c-11 -3 -33 -8 -50
-12 -41 -9 -125 -55 -125 -68 0 -6 -16 -24 -35 -39 -19 -15 -34 -33 -32 -39 2
-12 -97 -68 -121 -68 -11 0 -10 3 2 15 8 8 21 15 29 15 16 0 60 44 51 52 -3 4
13 19 35 34 23 14 41 31 41 35 0 12 -14 11 -25 0 -13 -13 -65 -22 -65 -12 0 4
19 13 43 20 59 17 127 51 127 63 0 13 22 34 45 42 26 8 75 52 75 66 0 12 10
13 28 1 10 -6 -3 -20 -49 -52 -34 -24 -64 -49 -66 -56 -6 -16 115 23 141 46
10 9 20 15 22 14 15 -10 44 0 49 16 3 11 11 18 18 15 7 -2 73 57 147 131 74
74 131 135 126 135 -10 0 56 60 67 60 4 0 7 9 7 21 0 11 5 30 11 41 14 26 34
8 26 -24z m-2837 6 c0 -18 14 -40 43 -69 23 -23 100 -100 170 -173 71 -72 134
-129 140 -126 7 2 17 -6 22 -18 7 -16 18 -23 38 -22 15 0 27 -3 27 -7 0 -7 23
-17 55 -25 6 -2 32 -10 59 -18 43 -14 47 -14 36 -1 -7 9 -39 32 -71 52 -54 33
-73 53 -50 53 5 0 17 3 25 6 11 4 15 2 11 -7 -6 -17 61 -73 75 -64 6 3 13 -1
16 -9 3 -9 18 -17 33 -17 17 -1 20 -3 9 -6 -10 -2 -18 -9 -18 -14 0 -11 97
-59 121 -59 8 0 24 -7 35 -16 18 -15 18 -15 -6 -10 -14 4 -36 9 -50 12 l-25 5
24 -20 c13 -12 29 -21 37 -21 8 0 14 -4 14 -10 0 -22 2 -26 22 -47 11 -12 28
-20 38 -18 11 2 20 -4 23 -16 4 -13 14 -19 35 -19 29 0 50 -15 39 -27 -12 -11
-192 77 -192 93 0 6 -25 36 -56 66 -45 45 -69 59 -124 77 -38 11 -70 19 -72
17 -4 -4 31 -25 100 -61 20 -11 37 -23 37 -27 0 -9 -17 -3 -103 39 -37 18 -72
33 -77 33 -5 0 -14 8 -19 18 -6 9 -11 13 -11 8 0 -4 -19 7 -42 26 -60 49 -370
364 -385 391 -17 30 -16 57 2 57 10 0 15 -10 15 -26z m3157 -61 c-3 -10 -5 -4
-5 12 0 17 2 24 5 18 2 -7 2 -21 0 -30z m-2858 -49 c3 -16 1 -17 -13 -5 -19
16 -21 34 -3 29 6 -3 14 -13 16 -24z m2231 12 c0 -17 -14 -29 -23 -20 -8 8 3
34 14 34 5 0 9 -6 9 -14z m-2150 -38 c0 -6 -6 -5 -15 2 -8 7 -15 14 -15 16 0
2 7 1 15 -2 8 -4 15 -11 15 -16z m2080 17 c0 -2 -10 -10 -22 -16 -21 -11 -22
-11 -9 4 13 16 31 23 31 12z m-2798 -91 c-2 -28 0 -44 7 -44 6 0 11 -5 11 -11
0 -5 -5 -7 -11 -4 -12 8 -26 43 -33 82 -3 14 -10 31 -16 37 -21 21 -9 26 18 6
26 -19 28 -26 24 -66z m3513 22 c-14 -47 -33 -86 -40 -86 -3 0 0 12 6 27 6 15
8 42 4 60 -5 27 -3 32 17 36 13 2 24 5 25 6 0 0 -5 -19 -12 -43z m-685 -48
c-1 -26 -26 -65 -36 -55 -4 3 1 13 10 22 9 9 16 25 16 36 0 10 2 19 5 19 3 0
5 -10 5 -22z m-2143 -55 c-3 -2 -11 7 -20 21 -9 13 -13 26 -10 30 3 3 12 -6
20 -21 7 -14 12 -28 10 -30z m1875 -51 c3 -9 1 -26 -3 -37 -6 -15 -8 -11 -8
18 -1 40 4 48 11 19z m-1622 -27 c0 -8 -4 -17 -10 -20 -6 -4 -10 5 -10 20 0
15 4 24 10 20 6 -3 10 -12 10 -20z m-735 -23 c-3 -3 -11 0 -18 7 -9 10 -8 11
6 5 10 -3 15 -9 12 -12z m3075 -8 c-8 -8 -23 -20 -34 -25 -13 -6 -10 0 9 15
34 29 43 33 25 10z m-3025 -24 c3 -6 -1 -7 -9 -4 -18 7 -21 14 -7 14 6 0 13
-4 16 -10z m865 -30 c12 -8 9 -10 -12 -10 -16 0 -28 5 -28 10 0 13 20 13 40 0z
m250 -42 c0 -10 6 -18 14 -18 7 0 20 -7 27 -17 13 -15 12 -15 -9 -4 -18 10
-27 10 -38 0 -11 -9 -14 -8 -14 10 0 12 -9 29 -20 38 -25 21 -25 30 -2 36 20
4 42 -19 42 -45z m1030 42 c0 -5 -9 -10 -21 -10 -11 0 -17 5 -14 10 3 6 13 10
21 10 8 0 14 -4 14 -10z m-1169 -15 c-1 -15 -24 -12 -29 3 -3 9 2 13 12 10 10
-1 17 -7 17 -13z m959 6 c3 -1 -6 -7 -20 -14 -16 -8 -26 -23 -28 -40 -3 -28
-22 -38 -22 -12 0 14 -3 13 -25 -1 -14 -9 -25 -12 -25 -6 0 6 9 14 21 17 11 4
25 20 31 36 10 29 14 30 68 20z m90 -6 c-7 -8 -16 -15 -21 -15 -5 0 -9 7 -9
15 0 9 9 15 21 15 18 0 19 -2 9 -15z m-745 -15 c4 -6 -5 -10 -19 -10 -14 0
-26 5 -26 10 0 6 9 10 19 10 11 0 23 -4 26 -10z m460 0 c-11 -5 -27 -9 -35 -9
-13 -1 -13 0 0 9 8 5 24 9 35 9 l20 0 -20 -9z m-760 -40 c3 -5 1 -10 -4 -10
-6 0 -11 5 -11 10 0 6 2 10 4 10 3 0 8 -4 11 -10z m319 -29 c3 -5 -1 -11 -9
-15 -15 -6 -29 7 -18 18 9 9 21 8 27 -3z m414 -5 c6 -4 28 -9 48 -11 20 -3 43
-9 53 -15 13 -8 11 -9 -12 -10 -16 0 -36 4 -46 10 -10 5 -30 11 -44 14 -14 2
-34 9 -44 15 -15 8 -14 10 7 7 14 -1 31 -6 38 -10z m-472 -18 c-9 -5 -34 -12
-54 -14 -32 -4 -35 -3 -19 8 9 7 34 14 54 14 28 1 32 -1 19 -8z m196 0 c-18
-18 -15 -48 6 -48 13 0 14 -2 3 -9 -14 -9 -68 -8 -78 3 -3 3 1 6 10 6 10 0 17
4 17 10 0 5 10 18 22 30 23 21 40 28 20 8z m598 -3 c-29 -17 -50 -19 -50 -6 0
8 20 14 65 19 6 1 -1 -5 -15 -13z m-1035 -5 c8 -13 -25 -13 -45 0 -12 8 -9 10
12 10 15 0 30 -4 33 -10z m580 -20 c3 -11 11 -20 16 -20 5 0 9 -4 9 -9 0 -5
-16 -8 -36 -6 -38 4 -60 15 -30 15 13 0 17 6 13 20 -3 13 0 20 8 20 8 0 17 -9
20 -20z m342 -4 c18 5 24 3 19 -5 -4 -6 -18 -11 -32 -11 -14 0 -34 -5 -44 -10
-13 -7 -21 -7 -25 0 -3 5 -1 10 5 10 7 0 10 6 7 14 -8 20 14 26 31 9 8 -8 23
-11 39 -7z m-803 -1 c-4 -10 0 -15 12 -15 13 0 15 -3 7 -11 -8 -8 -19 -7 -39
3 -16 8 -37 13 -46 11 -10 -3 -18 0 -18 6 0 5 15 12 33 14 17 2 37 5 44 5 7 1
10 -4 7 -13z m184 -16 l37 -1 -32 -8 c-38 -9 -85 -2 -77 12 3 5 13 7 21 4 8
-3 31 -6 51 -7z m447 1 c7 -12 -31 -16 -92 -10 -19 2 -12 5 22 10 28 4 53 8
57 8 4 1 10 -2 13 -8z m-735 -15 c-13 -16 -70 -21 -70 -6 0 12 19 19 54 20 24
1 27 -1 16 -14z m998 9 c12 -4 22 -10 22 -15 0 -14 -53 -10 -74 6 -19 15 -19
15 5 15 13 0 34 -3 47 -6z m-346 -46 c-7 -7 -12 -20 -12 -31 0 -10 -5 -17 -12
-15 -22 8 -19 33 4 44 31 16 34 16 20 2z m-314 -27 c-5 -24 -31 -20 -33 5 -1
16 3 20 17 16 11 -2 18 -12 16 -21z m-110 -41 c13 -26 23 -34 30 -25 4 6 16
17 26 25 19 15 19 14 2 -18 -12 -23 -22 -32 -32 -28 -9 3 -20 6 -25 6 -5 0 -9
6 -9 14 0 7 -16 26 -35 40 -19 15 -35 32 -35 37 0 9 71 -38 78 -51z m760 44
c-9 -9 -21 -13 -27 -9 -16 10 -3 25 22 25 20 0 20 -1 5 -16z m-198 -3 c0 -6
-13 -18 -30 -28 -16 -9 -30 -23 -30 -30 0 -12 -30 -33 -48 -33 -5 0 -14 11
-20 25 -12 27 -12 28 12 19 9 -3 13 -10 10 -15 -14 -22 17 -5 55 31 44 42 51
46 51 31z m-806 -37 c3 -8 2 -12 -4 -9 -6 3 -10 10 -10 16 0 14 7 11 14 -7z
m-704 -9 c0 -8 -4 -15 -9 -15 -5 0 -14 7 -21 15 -10 13 -9 15 9 15 12 0 21 -6
21 -15z m2418 3 c-3 -7 -13 -15 -24 -17 -16 -3 -17 -1 -5 13 16 19 34 21 29 4z
m-1061 -35 c6 -17 -42 -24 -160 -24 -117 1 -177 8 -177 22 0 5 60 7 133 6 72
-2 143 0 157 4 30 8 43 6 47 -8z m-1112 -33 c18 -20 18 -21 -5 -12 -13 5 -26
14 -28 20 -6 19 13 14 33 -8z m535 10 c8 -5 11 -10 5 -10 -5 0 -17 5 -25 10
-8 5 -10 10 -5 10 6 0 17 -5 25 -10z m860 6 c0 -2 -7 -6 -15 -10 -8 -3 -15 -1
-15 4 0 6 7 10 15 10 8 0 15 -2 15 -4z m534 -5 c5 -8 -74 -54 -81 -47 -2 2 57
46 74 55 1 1 4 -3 7 -8z m-947 -26 c-4 -12 -46 -15 -53 -4 -2 4 -12 6 -22 3
-12 -4 -14 -3 -4 3 17 13 83 11 79 -2z m748 -55 c-3 -5 -12 -10 -18 -10 -7 0
-6 4 3 10 19 12 23 12 15 0z m-126 -45 c-9 -8 -79 -35 -79 -30 0 7 53 34 69
35 8 0 12 -2 10 -5z m-1225 -22 c3 -4 17 -8 29 -10 58 -9 97 -25 97 -40 0 -14
-2 -14 -25 1 -13 9 -35 16 -47 16 -13 0 -32 6 -43 14 -11 7 -29 16 -40 19 -19
5 -19 5 1 6 11 0 24 -2 28 -6z m1136 -12 c0 -5 -21 -14 -47 -21 -26 -6 -53
-16 -60 -22 -8 -7 -13 -7 -13 0 0 18 31 35 66 38 20 1 38 5 41 8 9 8 13 7 13
-3z m-853 -208 c-8 -7 -37 9 -31 19 3 5 12 4 20 -3 8 -6 13 -14 11 -16z m608
17 c3 -5 -1 -10 -10 -10 -9 0 -13 5 -10 10 3 6 8 10 10 10 2 0 7 -4 10 -10z
m-251 -28 c3 -5 -27 -9 -69 -9 -40 1 -72 3 -70 7 6 9 133 11 139 2z m2223 -54
c-3 -8 -6 -5 -6 6 -1 11 2 17 5 13 3 -3 4 -12 1 -19z m-40 -70 c-3 -8 -6 -5
-6 6 -1 11 2 17 5 13 3 -3 4 -12 1 -19z"/>
<path d="M2406 3865 c-7 -20 9 -28 23 -11 9 10 8 15 -3 19 -8 3 -17 -1 -20 -8z"/>
<path d="M2573 3860 c5 -21 -4 -24 -50 -20 -13 1 -23 -4 -23 -12 0 -7 11 -14
25 -14 14 -1 25 2 25 7 0 6 8 5 19 -1 11 -5 28 -10 38 -10 17 1 17 1 0 14 -14
11 -15 15 -5 20 10 5 10 7 0 12 -6 3 -10 10 -6 15 3 5 -2 9 -12 9 -11 0 -15
-6 -11 -20z"/>
<path d="M2410 3831 l-24 -19 46 0 c30 1 49 6 52 15 6 15 -10 18 -19 2 -5 -6
-11 -5 -18 5 -11 14 -15 13 -37 -3z"/>
<path d="M2405 3770 c-17 -18 -17 -21 -1 -45 9 -14 20 -25 25 -25 7 0 31 65
31 84 0 14 -38 5 -55 -14z"/>
<path d="M2480 3765 c-27 -72 -26 -75 25 -75 43 0 46 1 40 23 -22 72 -49 94
-65 52z"/>
<path d="M2550 3778 c0 -17 23 -78 30 -78 3 0 13 13 23 29 16 28 16 29 -8 45
-29 19 -45 20 -45 4z"/>
<path d="M2280 3735 c-41 -42 -43 -45 -20 -45 28 0 80 46 80 72 0 27 -12 22
-60 -27z"/>
<path d="M2670 3765 c0 -24 54 -78 74 -74 16 3 12 11 -22 47 -43 45 -52 50
-52 27z"/>
<path d="M2260 3760 c-8 -5 -12 -12 -9 -15 4 -3 12 1 19 10 14 17 11 19 -10 5z"/>
<path d="M2742 3754 c10 -10 20 -16 22 -13 3 3 -5 11 -17 18 -21 13 -21 12 -5
-5z"/>
<path d="M2175 3733 c-49 -14 -73 -28 -64 -37 2 -2 21 -7 41 -11 32 -6 40 -3
63 20 43 47 37 52 -40 28z"/>
<path d="M2780 3736 c0 -7 10 -22 23 -34 18 -17 31 -21 55 -16 59 12 48 24
-50 54 -20 6 -28 5 -28 -4z"/>
<path d="M2356 3714 c-8 -22 -3 -26 24 -22 22 3 22 3 2 21 -18 17 -20 17 -26
1z"/>
<path d="M2620 3711 c-10 -19 -8 -21 15 -21 19 0 26 5 23 17 -5 25 -25 27 -38
4z"/>
<path d="M2010 3640 c-12 -8 -11 -10 7 -10 12 0 25 5 28 10 8 13 -15 13 -35 0z"/>
<path d="M2145 3642 c-27 -6 -47 -23 -42 -36 3 -6 0 -19 -5 -28 -7 -14 -4 -18
12 -18 11 0 20 5 20 11 0 5 -5 7 -11 3 -7 -4 -10 -1 -7 7 2 7 18 13 34 14 20
0 30 6 32 19 5 23 -7 34 -33 28z"/>
<path d="M2340 3640 c0 -5 9 -11 20 -11 11 -1 25 -2 32 -3 6 -1 13 5 16 12 2
8 -8 12 -32 12 -20 0 -36 -4 -36 -10z"/>
<path d="M2470 3642 c0 -5 8 -16 19 -26 17 -16 19 -15 35 9 l16 25 -35 0 c-19
0 -35 -4 -35 -8z"/>
<path d="M2595 3640 c-10 -16 19 -22 48 -11 15 6 27 13 27 16 0 10 -69 5 -75
-5z"/>
<path d="M2825 3639 c-8 -11 17 -49 32 -49 22 0 43 12 43 24 0 15 -68 38 -75
25z"/>
<path d="M2942 3645 c10 -10 68 -14 63 -4 -4 5 -20 9 -37 9 -17 0 -29 -2 -26
-5z"/>
<path d="M2550 3620 c-9 -16 -8 -18 5 -14 8 4 15 12 15 20 0 20 -7 17 -20 -6z"/>
<path d="M2232 3610 c-16 -26 -16 -25 14 -28 14 -1 32 5 40 13 13 12 12 15 -5
25 -27 14 -34 13 -49 -10z"/>
<path d="M2440 3615 c7 -9 15 -13 17 -11 7 7 -7 26 -19 26 -6 0 -6 -6 2 -15z"/>
<path d="M2724 3615 c-9 -22 4 -35 37 -35 33 0 38 16 12 36 -24 18 -42 17 -49
-1z"/>
<path d="M1900 3605 c-7 -8 -8 -15 -2 -15 5 0 15 7 22 15 7 8 8 15 2 15 -5 0
-15 -7 -22 -15z"/>
<path d="M3084 3605 c8 -8 20 -15 27 -15 9 0 8 4 -1 15 -7 8 -19 15 -27 15
-12 0 -12 -2 1 -15z"/>
<path d="M2322 3600 c5 -15 58 -22 58 -8 0 4 -6 8 -14 8 -8 0 -22 3 -32 7 -11
4 -15 2 -12 -7z"/>
<path d="M2643 3600 c-31 -13 -29 -16 9 -16 17 1 33 7 36 14 4 14 -13 15 -45
2z"/>
<path d="M1990 3586 c-6 -6 -10 -16 -10 -24 0 -11 10 -12 43 -7 50 9 51 10 43
30 -6 17 -59 18 -76 1z"/>
<path d="M2940 3580 c0 -11 6 -20 14 -20 7 0 28 -3 45 -6 28 -6 31 -4 24 12
-9 25 -23 34 -55 34 -21 0 -28 -5 -28 -20z"/>
<path d="M1768 3583 c-10 -2 -18 -8 -18 -13 0 -4 -7 -7 -16 -6 -9 0 -19 -5
-21 -11 -7 -19 11 -16 51 8 47 27 48 34 4 22z"/>
<path d="M1850 3580 c-9 -6 -10 -10 -3 -10 6 0 15 5 18 10 8 12 4 12 -15 0z"/>
<path d="M2875 3570 c3 -5 13 -10 21 -10 8 0 12 5 9 10 -3 6 -13 10 -21 10 -8
0 -12 -4 -9 -10z"/>
<path d="M3243 3560 c28 -23 51 -26 45 -7 -3 6 -10 12 -15 12 -6 0 -15 3 -19
8 -4 4 -14 7 -22 7 -9 0 -5 -7 11 -20z"/>
<path d="M1905 3560 c-4 -6 7 -10 24 -10 17 0 31 5 31 10 0 6 -11 10 -24 10
-14 0 -28 -4 -31 -10z"/>
<path d="M3050 3560 c0 -5 12 -10 26 -10 14 0 23 4 19 10 -3 6 -15 10 -26 10
-10 0 -19 -4 -19 -10z"/>
<path d="M2233 3542 c-19 -3 -41 -47 -29 -59 9 -9 46 8 55 26 13 23 1 37 -26
33z"/>
<path d="M2297 3530 c-6 -24 -8 -24 37 -5 45 19 45 25 2 25 -25 0 -35 -5 -39
-20z"/>
<path d="M2669 3529 c47 -21 62 -19 41 6 -7 9 -28 15 -49 14 l-36 0 44 -20z"/>
<path d="M2013 3530 c-13 -6 -21 -17 -20 -29 2 -29 52 -29 67 -1 19 35 -1 48
-47 30z"/>
<path d="M2113 3510 c-18 -16 -33 -34 -33 -39 0 -15 29 -21 53 -12 17 7 23 18
25 45 3 43 -3 44 -45 6z"/>
<path d="M2409 3523 c-13 -17 -13 -17 6 -3 11 8 22 16 24 17 2 2 0 3 -6 3 -6
0 -17 -8 -24 -17z"/>
<path d="M2492 3511 c-18 -50 -15 -61 13 -59 28 3 29 8 11 58 l-13 34 -11 -33z"/>
<path d="M2740 3530 c0 -15 38 -50 53 -50 9 0 12 10 9 30 -4 25 -9 30 -33 30
-16 0 -29 -4 -29 -10z"/>
<path d="M1900 3521 c0 -5 11 -12 25 -15 27 -7 49 0 41 13 -7 10 -66 13 -66 2z"/>
<path d="M2432 3497 c-38 -39 -40 -48 -9 -44 12 2 28 16 35 31 21 43 9 49 -26
13z"/>
<path d="M2544 3493 c11 -33 17 -38 46 -39 l33 -1 -42 38 c-23 22 -44 39 -46
39 -2 0 2 -17 9 -37z"/>
<path d="M2580 3526 c0 -2 7 -7 16 -10 8 -3 12 -2 9 4 -6 10 -25 14 -25 6z"/>
<path d="M2854 3503 c2 -16 4 -31 5 -34 3 -19 61 -18 61 1 0 12 -45 60 -57 60
-7 0 -10 -11 -9 -27z"/>
<path d="M2952 3508 c4 -31 52 -38 67 -10 12 22 -2 32 -46 32 -20 0 -24 -4
-21 -22z"/>
<path d="M3057 3524 c-12 -12 3 -22 23 -17 11 3 17 9 14 14 -6 10 -28 12 -37
3z"/>
<path d="M1770 3505 c0 -8 4 -15 9 -15 5 0 14 7 21 15 10 13 9 15 -9 15 -12 0
-21 -6 -21 -15z"/>
<path d="M3204 3505 c19 -14 36 -12 36 6 0 5 -12 9 -27 9 -27 -1 -27 -1 -9
-15z"/>
<path d="M2311 3492 c-40 -20 -42 -36 -6 -40 30 -4 51 10 58 38 6 24 -7 25
-52 2z"/>
<path d="M2640 3502 c0 -20 33 -52 55 -52 31 0 39 14 17 32 -20 18 -72 32 -72
20z"/>
<path d="M1700 3491 c0 -5 -3 -18 -6 -28 -6 -16 -5 -16 9 2 19 23 21 35 7 35
-5 0 -10 -4 -10 -9z"/>
<path d="M1819 3487 c-19 -14 -14 -33 12 -47 17 -10 19 -7 19 25 0 37 -6 42
-31 22z"/>
<path d="M3150 3458 l0 -43 28 28 c26 27 27 28 8 43 -30 22 -36 17 -36 -28z"/>
<path d="M1892 3456 c1 -14 7 -26 13 -26 5 0 4 -4 -4 -9 -19 -12 3 -24 29 -16
24 8 41 37 31 53 -4 6 -21 15 -39 18 -30 6 -32 5 -30 -20z"/>
<path d="M3054 3468 c-21 -34 -1 -68 39 -68 18 0 28 55 13 70 -14 14 -43 13
-52 -2z"/>
<path d="M3250 3476 c0 -2 7 -7 16 -10 8 -3 12 -2 9 4 -6 10 -25 14 -25 6z"/>
<path d="M1590 3384 l-75 -77 60 41 c34 22 66 46 71 53 10 12 26 59 20 59 -1
0 -35 -34 -76 -76z"/>
<path d="M3344 3435 c4 -16 10 -33 14 -36 16 -14 142 -100 142 -97 0 1 -37 39
-82 83 -72 71 -80 77 -74 50z"/>
<path d="M1733 3427 c-30 -20 -73 -82 -73 -105 0 -8 153 36 180 53 13 8 -46
75 -64 74 -6 0 -25 -10 -43 -22z"/>
<path d="M3191 3418 c-16 -18 -28 -35 -26 -39 6 -8 175 -63 180 -58 2 2 -3 18
-10 36 -12 28 -86 93 -106 93 -4 0 -21 -14 -38 -32z"/>
<path d="M2205 3420 c-3 -5 -1 -10 4 -10 6 0 11 5 11 10 0 6 -2 10 -4 10 -3 0
-8 -4 -11 -10z"/>
<path d="M2469 3420 c-16 -11 21 -18 51 -10 24 6 24 7 -7 11 -18 3 -38 2 -44
-1z"/>
<path d="M2708 3418 c6 -6 18 -8 28 -6 14 3 12 5 -9 10 -19 3 -25 2 -19 -4z"/>
<path d="M2268 3413 c6 -2 18 -2 25 0 6 3 1 5 -13 5 -14 0 -19 -2 -12 -5z"/>
<path d="M2370 3412 c0 -5 14 -7 30 -4 17 2 30 6 30 8 0 2 -13 4 -30 4 -16 0
-30 -4 -30 -8z"/>
<path d="M2576 3410 c6 -6 21 -6 39 -1 30 9 30 9 -9 10 -26 1 -37 -2 -30 -9z"/>
<path d="M2085 3400 c-6 -9 -1 -50 10 -92 2 -5 3 -11 4 -15 1 -5 8 0 16 10 7
11 11 25 8 33 -3 8 -1 14 5 14 6 0 7 11 3 28 -8 28 -34 41 -46 22z"/>
<path d="M2880 3401 c0 -22 -2 -26 -16 -34 -8 -5 -13 -21 -11 -41 1 -19 5 -32
9 -30 4 3 5 19 1 36 -4 22 -3 30 6 27 7 -3 13 -9 13 -14 0 -17 18 -45 29 -45
6 0 9 22 7 52 -2 41 -7 54 -20 56 -10 2 -18 -1 -18 -7z"/>
<path d="M2018 3379 c-27 -15 -22 -48 8 -59 35 -14 43 -6 35 32 -7 35 -18 42
-43 27z"/>
<path d="M2198 3384 c-5 -4 -8 -21 -8 -38 1 -26 2 -28 11 -13 11 19 8 63 -3
51z"/>
<path d="M2948 3373 c-2 -10 -2 -28 0 -39 5 -26 37 -22 52 7 8 14 5 21 -12 33
-29 20 -36 20 -40 -1z"/>
<path d="M2363 3372 c-16 -10 -45 -92 -39 -109 6 -14 41 -12 54 3 15 16 35 92
28 103 -8 13 -26 14 -43 3z"/>
<path d="M2453 3365 c-5 -5 -14 -28 -21 -50 -8 -22 -15 -45 -18 -51 -3 -7 24
-11 86 -11 101 1 96 -6 65 82 -14 39 -17 40 -59 40 -24 0 -48 -4 -53 -10z"/>
<path d="M2690 3370 c0 -18 32 -110 39 -115 14 -8 51 7 51 22 0 27 -28 68 -59
86 -19 11 -31 14 -31 7z"/>
<path d="M2800 3356 c0 -14 5 -28 10 -31 6 -4 10 5 8 24 -3 37 -18 42 -18 7z"/>
<path d="M2260 3346 c-21 -24 -38 -85 -22 -87 4 0 14 -2 24 -4 11 -2 22 12 37
52 25 66 25 63 3 63 -10 0 -29 -11 -42 -24z"/>
<path d="M2597 3363 c-3 -5 4 -31 14 -59 17 -45 22 -50 49 -50 35 0 36 3 13
67 -15 42 -21 49 -45 49 -15 0 -29 -3 -31 -7z"/>
<path d="M3040 3350 c0 -5 5 -10 11 -10 5 0 7 5 4 10 -3 6 -8 10 -11 10 -2 0
-4 -4 -4 -10z"/>
<path d="M1561 3309 c-30 -22 -57 -42 -60 -44 -2 -3 18 2 45 11 46 15 84 45
84 65 0 15 -13 9 -69 -32z"/>
<path d="M1743 3316 c-101 -34 -104 -37 -123 -131 -5 -27 -12 -61 -16 -75 -5
-18 30 11 120 100 115 114 139 142 119 139 -5 -1 -50 -16 -100 -33z"/>
<path d="M1948 3343 c7 -3 16 -2 19 1 4 3 -2 6 -13 5 -11 0 -14 -3 -6 -6z"/>
<path d="M3275 3220 c71 -71 130 -128 131 -127 5 5 -44 179 -52 187 -10 9
-182 70 -198 70 -6 0 48 -58 119 -130z"/>
<path d="M3380 3338 c1 -24 25 -46 65 -57 21 -6 40 -9 42 -7 2 2 -16 16 -39
32 -67 46 -68 46 -68 32z"/>
<path d="M1915 3319 c-7 -11 19 -45 46 -60 13 -7 17 -3 17 17 0 28 -51 63 -63
43z"/>
<path d="M1740 3194 c-85 -85 -117 -124 -100 -119 110 33 121 40 150 90 54 93
81 147 78 151 -2 2 -60 -53 -128 -122z"/>
<path d="M3053 3312 c-6 -4 -14 -19 -17 -34 -6 -33 10 -28 42 13 21 26 22 29
5 29 -10 0 -23 -4 -30 -8z"/>
<path d="M3140 3307 c0 -3 14 -29 30 -57 17 -28 30 -55 30 -60 0 -4 3 -10 8
-12 4 -1 14 -16 24 -33 12 -22 32 -36 79 -53 34 -12 63 -21 65 -19 3 3 -154
163 -232 236 -2 2 -4 2 -4 -2z"/>
<path d="M2010 3250 c0 -32 4 -40 18 -40 41 0 57 51 23 70 -33 17 -41 11 -41
-30z"/>
<path d="M2951 3276 c-16 -19 -8 -58 15 -67 28 -10 34 -2 34 42 0 31 -4 39
-19 39 -10 0 -24 -6 -30 -14z"/>
<path d="M1495 3234 c-38 -13 -73 -28 -77 -32 -5 -5 -7 -62 -6 -126 l3 -118
39 74 c22 40 42 75 46 78 14 11 79 140 72 143 -4 3 -38 -6 -77 -19z"/>
<path d="M1870 3244 c-16 -20 -60 -98 -60 -107 0 -11 72 18 80 32 4 9 5 33 1
55 -6 36 -7 37 -21 20z"/>
<path d="M3119 3222 c-6 -55 -1 -69 26 -76 13 -3 30 -9 39 -12 11 -4 16 -1 16
10 0 9 -3 16 -7 16 -5 0 -17 18 -27 40 -30 62 -43 68 -47 22z"/>
<path d="M3436 3238 c3 -13 12 -30 19 -38 12 -14 38 -59 81 -140 11 -19 22
-37 25 -40 3 -3 11 -14 17 -25 13 -23 13 -26 17 102 1 50 0 95 -4 100 -5 8
-143 63 -157 63 -3 0 -2 -10 2 -22z"/>
<path d="M1913 3215 c2 -36 15 -43 52 -29 14 6 12 11 -11 35 -36 38 -43 36
-41 -6z"/>
<path d="M3050 3223 c-20 -26 -20 -28 -4 -40 27 -20 39 -11 42 30 4 44 -9 47
-38 10z"/>
<path d="M3400 3236 c0 -3 11 -46 25 -97 24 -90 27 -96 92 -161 37 -37 69 -66
71 -64 2 3 -9 26 -24 53 -15 26 -41 73 -58 103 -16 30 -33 57 -36 60 -4 3 -19
29 -34 58 -23 45 -36 63 -36 48z"/>
<path d="M1568 3182 c-10 -20 -35 -66 -58 -101 -22 -34 -40 -66 -40 -70 0 -4
-13 -28 -30 -54 -16 -26 -30 -51 -30 -55 0 -3 32 25 70 63 72 71 83 94 116
228 9 39 -8 33 -28 -11z"/>
<path d="M2226 3212 c-3 -5 -8 -24 -11 -42 -3 -18 -8 -37 -10 -41 -3 -3 4 -9
15 -12 21 -5 37 9 35 33 -1 8 2 23 7 32 6 12 3 20 -11 28 -11 5 -22 6 -25 2z"/>
<path d="M2753 3212 c-25 -16 4 -106 31 -96 12 5 13 20 8 84 -2 21 -18 25 -39
12z"/>
<path d="M2857 3196 c-9 -23 -1 -51 14 -51 8 0 14 6 13 13 -1 6 -2 21 -2 32
-2 23 -17 27 -25 6z"/>
<path d="M2120 3183 c0 -17 18 -54 21 -43 9 34 6 60 -7 60 -8 0 -14 -8 -14
-17z"/>
<path d="M2300 3180 c-14 -25 -13 -101 0 -80 8 12 10 12 10 -5 1 -19 1 -19 12
-1 8 14 8 24 0 37 -9 15 -9 17 2 13 15 -6 33 32 22 44 -14 13 -37 9 -46 -8z"/>
<path d="M2394 3183 c-3 -10 -12 -35 -20 -56 -17 -44 -17 -47 -4 -47 5 0 14
15 19 33 10 32 10 32 8 3 -3 -36 20 -46 32 -14 9 21 10 21 11 3 0 -17 2 -17
10 -5 8 13 10 13 10 -2 0 -19 40 -13 40 6 0 8 3 8 8 0 13 -19 40 -24 38 -6 0
9 6 17 14 17 9 0 15 9 14 23 -1 12 3 22 8 22 6 0 8 -6 5 -14 -3 -7 0 -19 6
-26 9 -10 9 -11 0 -6 -6 3 -14 2 -18 -4 -4 -6 -11 -7 -17 -4 -6 4 -8 3 -5 -2
3 -6 24 -11 46 -12 31 -2 41 1 41 13 0 8 -5 15 -11 15 -5 0 -8 4 -5 9 8 12 -4
42 -14 36 -5 -3 -6 3 -3 14 4 14 0 18 -19 17 -12 0 -26 -5 -30 -11 -5 -6 -8
-5 -8 3 0 6 -10 12 -21 12 -17 0 -20 -5 -17 -25 3 -13 1 -22 -3 -19 -5 3 -9
13 -9 22 0 20 -60 27 -72 8 -6 -8 -8 -8 -8 2 0 18 -20 15 -26 -5z m62 -18 c1
-9 -2 -12 -9 -8 -7 4 -8 0 -3 -13 6 -15 5 -16 -5 -7 -9 9 -9 16 -1 26 7 8 10
17 7 20 -3 4 -2 5 2 2 4 -3 8 -12 9 -20z m52 -40 c-3 -3 -9 2 -12 12 -6 14 -5
15 5 6 7 -7 10 -15 7 -18z m-91 -27 c-3 -7 -5 -2 -5 12 0 14 2 19 5 13 2 -7 2
-19 0 -25z"/>
<path d="M2650 3191 c0 -4 7 -17 16 -29 8 -12 12 -22 8 -22 -5 0 -3 -5 3 -11
6 -6 9 -17 6 -24 -3 -9 2 -12 13 -11 11 2 19 13 21 30 2 15 0 25 -5 22 -5 -3
-8 7 -7 22 2 24 -2 27 -26 28 -16 1 -29 -1 -29 -5z"/>
<path d="M3020 3139 c0 -12 10 -42 22 -66 24 -48 29 -44 41 29 5 34 3 37 -25
47 -40 14 -38 15 -38 -10z"/>
<path d="M1938 3148 c0 -2 -2 -29 -3 -60 -2 -62 9 -66 31 -12 20 48 18 74 -6
74 -11 0 -21 -1 -22 -2z"/>
<path d="M2944 3125 c-6 -23 -3 -45 10 -95 3 -8 5 -24 5 -34 1 -23 14 -14 17
12 1 9 5 32 8 51 3 20 -1 45 -10 63 -18 34 -22 35 -30 3z"/>
<path d="M2036 3131 c-10 -16 -5 -161 6 -167 6 -4 8 2 3 15 -4 12 -2 27 3 34
9 11 18 48 25 102 2 20 -27 33 -37 16z"/>
<path d="M1826 3114 c-31 -10 -50 -22 -53 -35 -3 -10 -9 -19 -13 -19 -5 0 -13
-12 -19 -27 -15 -37 -62 -117 -73 -124 -5 -3 -10 -10 -10 -15 0 -5 -7 -23 -16
-40 -13 -28 -13 -42 4 -135 17 -89 22 -104 38 -104 12 0 28 17 46 50 36 66 89
156 133 228 33 54 35 63 36 147 1 100 4 97 -73 74z"/>
<path d="M3120 3117 c-10 -8 -14 -28 -13 -62 1 -27 2 -63 2 -80 1 -29 32 -87
111 -210 11 -16 31 -54 45 -82 14 -29 34 -57 45 -63 17 -9 22 -7 30 15 6 15
10 34 10 43 0 9 7 47 16 83 l16 65 -74 130 c-67 115 -79 131 -119 151 -52 26
-50 26 -69 10z"/>
<path d="M2865 3109 c-13 -19 -13 -57 0 -53 8 3 10 -5 7 -26 -2 -16 0 -30 6
-30 5 0 10 17 10 38 0 21 2 42 3 48 6 30 -12 47 -26 23z"/>
<path d="M2112 3051 c3 -66 22 -73 32 -13 9 58 7 68 -14 69 -19 2 -20 -3 -18
-56z"/>
<path d="M3621 3025 c0 -93 12 -101 23 -15 4 29 1 55 -8 75 -14 28 -14 25 -15
-60z"/>
<path d="M1369 3098 c-8 -41 -8 -92 -1 -119 9 -30 10 -25 11 44 1 42 -1 77 -4
77 -3 0 -5 -1 -6 -2z"/>
<path d="M2190 3065 c0 -40 35 -45 37 -5 0 14 -1 18 -4 8 -2 -10 -9 -18 -14
-18 -6 0 -8 4 -5 8 2 4 1 14 -5 22 -6 11 -9 7 -9 -15z"/>
<path d="M2777 3075 c-4 -8 -2 -28 4 -43 9 -24 11 -25 20 -9 13 22 8 59 -7 64
-6 2 -14 -3 -17 -12z m20 -32 c-3 -10 -5 -4 -5 12 0 17 2 24 5 18 2 -7 2 -21
0 -30z"/>
<path d="M1661 3054 c-36 -11 -67 -26 -69 -32 -5 -15 16 -124 26 -134 5 -5 32
35 61 87 29 53 52 97 50 98 -2 2 -33 -7 -68 -19z"/>
<path d="M3270 3071 c0 -4 4 -11 9 -16 5 -6 24 -37 42 -70 18 -33 40 -71 50
-83 l18 -24 6 24 c18 79 25 121 22 124 -9 10 -147 52 -147 45z"/>
<path d="M2705 3040 c-4 -6 3 -10 14 -10 25 0 27 6 6 13 -8 4 -17 2 -20 -3z"/>
<path d="M1964 3005 c-22 -33 -21 -95 2 -174 6 -19 4 -22 -7 -16 -11 7 -12 6
-3 -6 6 -8 10 -22 9 -32 -2 -9 1 -15 6 -11 5 3 9 0 9 -5 0 -6 -4 -11 -10 -11
-5 0 -10 -4 -10 -10 0 -5 6 -9 13 -7 6 1 11 -4 9 -11 -1 -8 2 -11 9 -7 7 5 8
10 0 18 -7 7 -7 16 0 29 6 12 6 18 -1 18 -5 0 -10 5 -10 11 0 5 5 7 10 4 6 -3
10 -1 10 4 0 6 -4 11 -10 11 -5 0 -10 8 -10 18 0 15 2 15 11 2 8 -11 9 -3 4
30 -4 25 -6 73 -5 108 0 34 -1 62 -4 62 -3 0 -13 -11 -22 -25z"/>
<path d="M3022 3008 c-4 -39 -8 -220 -5 -205 4 15 7 16 21 5 10 -7 14 -9 10
-4 -4 5 -1 24 7 42 8 19 10 34 5 34 -6 0 -6 10 0 25 9 24 8 33 -12 88 -11 28
-24 36 -26 15z"/>
<path d="M3435 2965 c-7 -52 -10 -69 -19 -105 -4 -17 2 -39 22 -72 l28 -48 62
63 62 62 -43 45 c-24 25 -57 58 -74 73 l-31 28 -7 -46z"/>
<path d="M1480 2935 l-64 -65 49 -52 c52 -54 67 -68 75 -68 3 0 16 16 29 35
20 30 23 42 17 87 -9 69 -25 128 -34 128 -4 0 -37 -29 -72 -65z"/>
<path d="M2205 2979 c-4 -6 -5 -12 -2 -15 2 -3 7 2 10 11 7 17 1 20 -8 4z"/>
<path d="M1307 2905 c-15 -44 -27 -88 -27 -98 0 -30 25 -19 53 25 30 46 33 77
13 123 l-13 30 -26 -80z"/>
<path d="M3656 2942 c-10 -63 -7 -77 25 -121 47 -63 56 -40 24 63 -15 47 -30
88 -35 91 -4 2 -10 -12 -14 -33z"/>
<path d="M1869 2843 c-19 -38 -37 -69 -41 -71 -5 -2 -8 -8 -8 -12 0 -5 -13
-31 -30 -57 -33 -52 -39 -73 -13 -52 9 8 18 13 20 11 2 -1 15 1 30 4 34 9 99
47 87 51 -5 2 -8 46 -7 98 2 52 1 95 -1 95 -1 0 -18 -30 -37 -67z"/>
<path d="M3109 2865 c-1 -16 -2 -37 -3 -45 -1 -8 -4 -19 -7 -25 -10 -17 -4
-60 8 -60 6 0 15 -4 20 -9 4 -5 3 -6 -3 -3 -7 4 -17 0 -24 -8 -7 -8 -10 -16
-6 -16 3 -1 9 -2 14 -3 4 -1 13 -5 20 -9 6 -5 12 -5 12 0 0 4 4 4 8 -2 4 -5
29 -18 55 -27 l48 -17 -35 61 c-19 34 -40 69 -48 78 -7 9 -14 22 -16 30 -2 7
-11 29 -22 49 l-19 36 -2 -30z"/>
<path d="M2923 2845 c0 -8 4 -12 9 -9 5 3 6 10 3 15 -9 13 -12 11 -12 -6z"/>
<path d="M1400 2830 c1 -8 7 -43 14 -77 7 -35 12 -63 10 -63 -3 0 5 -19 17
-41 23 -45 24 -45 62 22 l27 45 -65 64 c-36 36 -65 58 -65 50z"/>
<path d="M3535 2780 l-59 -58 24 -47 c51 -99 75 -69 97 118 3 26 4 46 2 46 -2
-1 -31 -27 -64 -59z"/>
<path d="M1342 2788 c-14 -14 -16 -48 -3 -48 9 0 25 49 18 56 -2 2 -9 -2 -15
-8z"/>
<path d="M3651 2770 c6 -16 15 -30 20 -30 12 0 11 17 -1 41 -17 30 -30 22 -19
-11z"/>
<path d="M3030 2779 c0 -5 5 -7 10 -4 6 3 10 8 10 11 0 2 -4 4 -10 4 -5 0 -10
-5 -10 -11z"/>
<path d="M1583 2752 l-22 -29 35 -34 36 -34 -8 40 c-4 22 -10 50 -13 63 -6 23
-6 23 -28 -6z"/>
<path d="M3399 2773 c-1 -9 -3 -22 -17 -82 l-11 -44 36 35 c35 35 35 35 19 67
-16 30 -25 39 -27 24z"/>
<path d="M3017 2758 c7 -8 10 -18 6 -22 -4 -4 0 -4 10 0 22 8 22 11 -5 25 -20
11 -21 10 -11 -3z"/>
<path d="M1377 2753 c-15 -14 -6 -53 14 -64 17 -9 20 -8 13 2 -4 7 -9 24 -10
37 -3 28 -8 35 -17 25z"/>
<path d="M3617 2740 c-14 -42 -14 -58 -2 -53 19 7 27 32 16 51 -8 15 -10 15
-14 2z"/>
<path d="M3682 2717 c-8 -9 -7 -28 4 -65 16 -53 32 -64 54 -37 11 13 9 24 -10
61 -28 53 -34 58 -48 41z"/>
<path d="M1252 2708 c-14 -14 -16 -28 -3 -28 9 0 24 30 18 36 -2 2 -9 -2 -15
-8z"/>
<path d="M1287 2696 c-34 -51 -31 -95 6 -96 9 0 24 36 32 84 6 28 4 36 -8 36
-8 0 -22 -11 -30 -24z"/>
<path d="M3746 2697 c3 -10 9 -15 12 -12 3 3 0 11 -7 18 -10 9 -11 8 -5 -6z"/>
<path d="M3412 2652 c-37 -37 -42 -46 -30 -57 17 -17 44 -21 90 -12 38 8 40
14 17 62 -25 54 -31 55 -77 7z"/>
<path d="M1520 2650 c-11 -21 -20 -44 -20 -49 0 -19 83 -28 113 -13 l29 14
-43 44 c-24 24 -47 44 -51 44 -4 0 -17 -18 -28 -40z"/>
<path d="M3617 2654 c-33 -39 -47 -94 -24 -94 9 0 19 5 22 10 4 6 10 8 15 5 4
-3 16 -2 25 1 14 6 16 15 11 47 -10 63 -18 67 -49 31z"/>
<path d="M1352 2668 c-5 -7 -13 -27 -16 -44 -6 -28 -4 -32 26 -45 52 -21 58
-20 58 12 0 37 -52 96 -68 77z"/>
<path d="M3095 2640 c-4 -6 3 -10 14 -10 25 0 27 6 6 13 -8 4 -17 2 -20 -3z"/>
<path d="M1830 2620 c-8 -5 -24 -10 -35 -10 -33 -1 -82 -25 -64 -32 8 -3 46 7
84 23 39 15 61 28 50 28 -11 1 -27 -4 -35 -9z"/>
<path d="M3146 2621 c13 -12 74 -31 74 -23 0 4 -12 13 -27 20 -31 14 -62 16
-47 3z"/>
<path d="M3232 2598 c2 -6 17 -13 32 -15 18 -3 25 0 21 7 -3 6 -10 8 -15 5 -5
-3 -11 -1 -15 5 -9 14 -28 13 -23 -2z"/>
<path d="M1241 2523 c0 -36 3 -63 9 -63 17 0 21 44 7 85 l-14 40 -2 -62z"/>
<path d="M1281 2564 c0 -11 3 -14 6 -6 3 7 2 16 -1 19 -3 4 -6 -2 -5 -13z"/>
<path d="M3715 2571 c-3 -5 -1 -12 5 -16 5 -3 10 1 10 9 0 18 -6 21 -15 7z"/>
<path d="M3757 2573 c-4 -3 -7 -11 -7 -17 0 -6 5 -5 12 2 6 6 9 14 7 17 -3 3
-9 2 -12 -2z"/>
<path d="M1485 2559 c-9 -14 -2 -20 14 -10 8 6 9 11 3 15 -6 3 -14 1 -17 -5z"/>
<path d="M1845 2560 c-4 -6 -11 -7 -17 -4 -7 4 -8 2 -4 -5 6 -9 11 -9 22 0 14
11 18 19 10 19 -3 0 -8 -5 -11 -10z"/>
<path d="M3155 2560 c3 -5 18 -10 32 -10 32 0 28 5 -10 14 -19 4 -26 3 -22 -4z"/>
<path d="M3355 2560 c-3 -5 1 -10 10 -10 9 0 13 5 10 10 -3 6 -8 10 -10 10 -2
0 -7 -4 -10 -10z"/>
<path d="M3511 2561 c-8 -6 -9 -11 -3 -15 6 -3 14 -1 17 5 9 14 2 20 -14 10z"/>
<path d="M1314 2546 c-10 -26 5 -35 54 -32 68 5 69 6 42 20 -44 24 -89 30 -96
12z"/>
<path d="M3650 2553 c-32 -10 -60 -27 -60 -35 0 -5 4 -7 8 -4 4 2 14 1 22 -4
8 -5 22 -4 33 1 15 9 20 7 24 -10 6 -23 18 -27 28 -11 3 6 1 10 -4 10 -6 0
-11 14 -11 30 0 29 -8 34 -40 23z"/>
<path d="M1536 2530 c14 -14 52 -21 59 -11 5 9 -27 21 -54 21 -10 0 -12 -3 -5
-10z"/>
<path d="M3425 2530 c-17 -7 -15 -9 12 -9 17 -1 35 4 38 9 7 12 -22 12 -50 0z"/>
<path d="M1748 2523 c7 -3 16 -2 19 1 4 3 -2 6 -13 5 -11 0 -14 -3 -6 -6z"/>
<path d="M3240 2526 c0 -9 30 -14 35 -6 4 6 -3 10 -14 10 -12 0 -21 -2 -21 -4z"/>
<path d="M3741 2512 c-7 -14 -6 -24 4 -38 8 -11 15 -17 16 -14 12 57 0 89 -20
52z"/>
<path d="M1302 2498 c3 -7 13 -15 24 -17 16 -3 17 -1 5 13 -16 19 -34 21 -29
4z"/>
<path d="M1475 2500 c-4 -6 3 -10 14 -10 25 0 27 6 6 13 -8 4 -17 2 -20 -3z"/>
<path d="M1636 2501 c-19 -7 -19 -8 2 -13 15 -4 22 -2 22 8 0 8 -1 14 -2 13
-2 0 -12 -4 -22 -8z"/>
<path d="M1830 2500 c0 -5 5 -10 11 -10 5 0 7 5 4 10 -3 6 -8 10 -11 10 -2 0
-4 -4 -4 -10z"/>
<path d="M3156 2502 c-2 -4 4 -9 15 -9 11 -1 17 2 14 8 -7 11 -22 12 -29 1z"/>
<path d="M3340 2501 c0 -12 28 -22 35 -12 3 5 -2 12 -11 15 -21 8 -24 8 -24
-3z"/>
<path d="M3510 2500 c-12 -8 -11 -10 8 -10 12 0 22 5 22 10 0 13 -11 13 -30 0z"/>
<path d="M1340 2473 c-24 -12 -35 -39 -15 -37 36 1 85 18 85 29 0 18 -41 23
-70 8z"/>
<path d="M3605 2482 c-13 -13 -3 -30 23 -35 15 -3 35 -9 45 -12 13 -5 17 -2
17 13 0 14 -10 22 -40 30 -21 5 -42 7 -45 4z"/>
<path d="M1547 2473 c-13 -13 -7 -20 16 -18 37 4 38 5 32 15 -7 11 -38 13 -48
3z"/>
<path d="M1735 2470 c-3 -5 1 -10 9 -10 9 0 16 5 16 10 0 6 -4 10 -9 10 -6 0
-13 -4 -16 -10z"/>
<path d="M3250 2469 c0 -5 9 -9 20 -9 11 0 20 2 20 4 0 2 -9 6 -20 9 -11 3
-20 1 -20 -4z"/>
<path d="M3427 2474 c-12 -13 3 -21 29 -16 19 3 22 7 12 13 -16 10 -32 11 -41
3z"/>
<path d="M1815 2440 c3 -5 8 -10 11 -10 2 0 4 5 4 10 0 6 -5 10 -11 10 -5 0
-7 -4 -4 -10z"/>
<path d="M1842 2438 c3 -7 10 -14 16 -14 7 -1 13 -2 15 -4 7 -5 38 -7 32 -2
-4 4 -10 7 -13 7 -4 1 -18 7 -31 14 -19 11 -23 11 -19 -1z"/>
<path d="M3155 2442 c-2 -3 -2 -8 1 -13 5 -9 34 -1 34 10 0 8 -27 10 -35 3z"/>
<path d="M3350 2442 c0 -15 11 -21 27 -15 12 5 12 7 1 14 -17 11 -28 11 -28 1z"/>
<path d="M3505 2440 c-3 -5 1 -10 10 -10 9 0 13 5 10 10 -3 6 -8 10 -10 10 -2
0 -7 -4 -10 -10z"/>
<path d="M1241 2424 c0 -11 3 -14 6 -6 3 7 2 16 -1 19 -3 4 -6 -2 -5 -13z"/>
<path d="M1276 2423 c-6 -14 -5 -15 5 -6 7 7 10 15 7 18 -3 3 -9 -2 -12 -12z"/>
<path d="M1488 2433 c7 -3 16 -2 19 1 4 3 -2 6 -13 5 -11 0 -14 -3 -6 -6z"/>
<path d="M1630 2429 c0 -5 5 -7 10 -4 6 3 10 8 10 11 0 2 -4 4 -10 4 -5 0 -10
-5 -10 -11z"/>
<path d="M3715 2430 c-3 -5 -1 -10 4 -10 6 0 11 5 11 10 0 6 -2 10 -4 10 -3 0
-8 -4 -11 -10z"/>
<path d="M1367 2418 c-41 -11 -42 -16 -17 -84 l11 -27 29 34 c26 31 42 91 23
88 -5 -1 -25 -6 -46 -11z"/>
<path d="M3580 2420 c0 -21 28 -76 47 -93 20 -18 21 -17 32 14 18 51 14 66
-20 78 -40 14 -59 14 -59 1z"/>
<path d="M1535 2412 c-26 -6 -48 -24 -37 -31 4 -3 19 -23 32 -45 l23 -38 39
42 c21 24 38 47 38 51 0 14 -63 28 -95 21z"/>
<path d="M1729 2407 c7 -9 17 -15 21 -12 5 3 12 0 15 -6 4 -5 13 -8 21 -5 8 3
14 0 14 -6 0 -6 3 -8 7 -5 3 4 12 2 20 -4 9 -8 13 -8 13 0 0 11 -52 36 -99 48
-23 6 -25 5 -12 -10z"/>
<path d="M3246 2404 c-9 -8 -16 -17 -16 -19 0 -6 40 7 45 16 10 16 -14 19 -29
3z"/>
<path d="M3425 2410 c-3 -6 -14 -9 -22 -8 -30 6 -24 -20 15 -63 l39 -42 28 47
c23 39 26 50 14 57 -8 5 -19 9 -26 9 -6 0 -18 3 -26 6 -8 3 -18 0 -22 -6z"/>
<path d="M3196 2385 c-3 -8 -1 -15 4 -15 13 0 22 18 11 24 -5 3 -11 -1 -15 -9z"/>
<path d="M1271 2381 c-9 -6 -11 -18 -7 -37 9 -37 42 -78 57 -69 18 12 -8 115
-29 115 -4 0 -13 -4 -21 -9z"/>
<path d="M3156 2375 c-11 -8 -15 -15 -9 -15 6 0 16 7 23 15 16 19 11 19 -14 0z"/>
<path d="M3687 2343 c-23 -81 3 -101 42 -33 25 45 21 80 -9 80 -14 0 -23 -13
-33 -47z"/>
<path d="M1448 2363 c-16 -19 -53 -191 -43 -201 3 -3 32 21 65 55 l59 60 -20
34 c-11 19 -22 42 -25 52 -4 9 -10 17 -14 17 -4 0 -14 -8 -22 -17z"/>
<path d="M1664 2357 c-4 -12 -8 -33 -10 -45 -1 -13 -8 -45 -14 -71 -13 -57
-10 -89 13 -124 9 -15 29 -48 43 -74 67 -121 91 -148 144 -165 42 -14 50 -14
50 -2 0 8 -1 16 -2 17 -2 2 3 11 11 20 9 12 10 17 2 17 -8 0 -9 6 -4 18 19 40
6 94 -42 167 -18 28 -57 95 -87 149 -58 105 -91 134 -104 93z"/>
<path d="M3312 2366 c-14 -7 -42 -46 -69 -96 -26 -47 -50 -88 -55 -91 -6 -3
-9 -9 -9 -13 1 -3 -15 -30 -34 -59 -36 -55 -42 -86 -37 -199 2 -45 17 -48 84
-19 33 14 50 30 69 64 13 24 45 82 71 129 l48 84 -21 104 c-11 57 -21 104 -22
105 -1 1 -12 -4 -25 -9z"/>
<path d="M3507 2328 l-28 -52 58 -58 c31 -31 59 -55 61 -53 3 2 -1 39 -8 82
-12 75 -33 133 -48 133 -4 0 -20 -23 -35 -52z"/>
<path d="M1760 2342 c0 -4 4 -12 9 -17 5 -6 26 -41 47 -80 21 -38 50 -89 65
-112 l27 -43 0 88 c0 48 2 94 3 102 2 8 0 14 -6 15 -5 0 -21 7 -34 14 -19 11
-22 11 -15 -1 4 -7 -2 -4 -14 6 -12 11 -22 16 -22 12 0 -3 -13 0 -30 9 -16 9
-30 12 -30 7z"/>
<path d="M3213 2335 c-13 -7 -20 -15 -15 -20 4 -4 -3 -5 -16 -2 -14 3 -20 1
-15 -6 4 -6 -2 -8 -15 -5 -23 6 -28 -2 -12 -18 6 -6 3 -10 -10 -10 -15 0 -19
5 -15 21 5 18 5 18 -5 2 -6 -10 -10 -28 -8 -40 1 -12 -1 -28 -5 -34 -5 -7 -4
-13 1 -13 6 0 10 -6 9 -12 0 -7 1 -31 2 -53 1 -33 4 -37 12 -22 5 9 7 22 3 29
-4 7 -3 8 4 4 7 -4 17 4 24 21 7 15 15 30 18 33 17 16 40 72 34 82 -4 6 -3 8
3 5 9 -6 41 39 32 46 -2 2 -14 -2 -26 -8z"/>
<path d="M1597 2312 c-15 -16 -27 -33 -27 -38 0 -14 24 -64 30 -64 7 0 33 120
27 126 -2 2 -16 -9 -30 -24z"/>
<path d="M3385 2281 c7 -34 15 -65 18 -67 3 -3 13 9 22 26 l17 33 -35 35 -35
35 13 -62z"/>
<path d="M1240 2308 c0 -9 7 -19 16 -22 15 -6 15 -4 3 11 -7 10 -15 20 -16 22
-2 2 -3 -3 -3 -11z"/>
<path d="M1382 2298 c-14 -14 -16 -44 -3 -52 5 -3 11 9 14 27 6 38 4 40 -11
25z"/>
<path d="M3610 2283 c0 -10 4 -24 9 -31 6 -11 9 -10 13 5 3 10 3 24 1 31 -7
18 -23 15 -23 -5z"/>
<path d="M1975 2250 c3 -5 8 -10 11 -10 2 0 4 5 4 10 0 6 -5 10 -11 10 -5 0
-7 -4 -4 -10z"/>
<path d="M1330 2231 c0 -10 7 -22 16 -25 12 -5 15 -2 10 10 -3 8 -6 20 -6 25
0 5 -4 9 -10 9 -5 0 -10 -9 -10 -19z"/>
<path d="M1476 2191 c-67 -68 -68 -61 25 -149 64 -59 61 -61 79 50 12 73 11
78 -11 117 -12 23 -25 41 -29 41 -3 0 -32 -27 -64 -59z"/>
<path d="M3440 2213 c-12 -21 -23 -46 -23 -58 -3 -27 25 -165 32 -165 4 0 37
31 74 68 l68 68 -62 62 c-33 34 -62 62 -64 62 -2 0 -13 -17 -25 -37z"/>
<path d="M3651 2219 c-6 -18 -11 -35 -11 -38 1 -11 40 44 40 57 0 24 -18 12
-29 -19z"/>
<path d="M3737 2243 c-4 -3 -7 -11 -7 -17 0 -6 5 -5 12 2 6 6 9 14 7 17 -3 3
-9 2 -12 -2z"/>
<path d="M1969 2213 c-5 -82 -8 -113 -14 -123 -4 -6 4 -6 20 2 24 11 25 13 8
19 -17 7 -17 8 1 8 20 1 20 1 0 16 -16 13 -16 14 -1 9 12 -4 17 -1 17 12 0 14
-2 16 -9 6 -7 -11 -9 -11 -14 2 -8 20 2 48 14 40 5 -3 6 2 3 10 -8 21 -24 20
-25 -1z"/>
<path d="M1284 2197 c-4 -10 -1 -37 6 -60 8 -23 14 -47 16 -53 1 -6 9 -24 17
-40 l15 -28 12 41 c15 50 9 77 -29 123 -26 31 -30 33 -37 17z"/>
<path d="M3676 2171 c-25 -36 -27 -45 -21 -95 4 -31 10 -56 14 -56 11 0 63
169 56 180 -11 17 -22 11 -49 -29z"/>
<path d="M3040 2162 c0 -7 -6 -12 -12 -12 -12 0 -17 -60 -8 -95 1 -5 1 -30 0
-55 -1 -41 0 -43 13 -25 14 19 30 60 32 80 2 16 -17 55 -27 55 -5 0 -3 6 4 14
7 8 18 11 23 8 6 -3 3 3 -5 14 -8 10 -16 21 -17 23 -2 2 -3 -1 -3 -7z"/>
<path d="M3375 2100 c-6 -10 -31 -56 -57 -100 -26 -45 -42 -80 -35 -78 22 6
132 42 135 44 3 2 -28 154 -32 154 -1 0 -6 -9 -11 -20z"/>
<path d="M1609 2098 c0 -7 -2 -20 -4 -28 -1 -8 -6 -35 -10 -60 l-6 -45 66 -23
c37 -13 69 -21 72 -18 3 3 -4 20 -15 38 -12 18 -35 59 -53 91 -31 55 -48 71
-50 45z"/>
<path d="M1451 2015 c23 -44 47 -87 54 -95 6 -8 29 -46 49 -83 21 -38 40 -66
42 -64 3 2 -5 43 -16 89 -21 83 -23 87 -97 159 l-75 74 43 -80z"/>
<path d="M1966 2075 c-10 -7 -15 -18 -11 -24 3 -6 1 -11 -5 -11 -6 0 0 -19 12
-42 25 -48 32 -37 26 38 -2 24 1 46 7 48 7 3 7 5 0 5 -5 0 -18 -6 -29 -14z"/>
<path d="M3518 2023 c-36 -38 -68 -77 -71 -88 -30 -99 -44 -165 -35 -165 5 0
15 14 21 30 6 17 15 30 19 30 4 0 8 4 8 9 0 9 79 152 90 161 12 11 44 80 39
85 -3 3 -35 -25 -71 -62z"/>
<path d="M3620 1965 c1 -88 1 -89 15 -56 10 22 13 49 9 80 -11 83 -24 69 -24
-24z"/>
<path d="M1365 1996 c-4 -25 -2 -57 3 -73 9 -24 11 -17 11 45 1 39 -1 72 -3
72 -3 0 -8 -20 -11 -44z"/>
<path d="M1410 1913 l0 -122 57 -21 c69 -26 113 -35 113 -24 0 4 -17 35 -39
68 -21 34 -59 97 -85 141 l-46 80 0 -122z"/>
<path d="M2035 1997 c0 -17 -2 -51 -6 -74 -7 -51 4 -73 32 -66 14 4 18 11 13
22 -3 9 -8 30 -10 46 -2 17 -7 41 -11 55 -3 14 -7 28 -7 32 -3 23 -12 12 -11
-15z"/>
<path d="M2960 2010 c0 -8 -3 -26 -7 -39 -5 -19 -3 -22 7 -16 8 5 7 -1 -3 -16
-9 -13 -17 -35 -17 -50 0 -32 26 -46 35 -19 8 26 4 126 -7 142 -6 10 -8 10 -8
-2z"/>
<path d="M3508 1883 c-43 -75 -76 -138 -74 -141 3 -2 20 1 39 7 19 7 44 14 57
16 12 2 32 11 44 18 19 13 21 24 22 126 0 61 -2 111 -5 111 -3 -1 -41 -62 -83
-137z"/>
<path d="M2124 1970 c1 -19 -1 -40 -6 -46 -11 -15 1 -46 16 -41 15 5 15 85 -1
106 -11 14 -12 11 -9 -19z"/>
<path d="M2209 1986 c8 -10 9 -16 1 -21 -15 -9 -13 -58 3 -53 21 8 17 88 -5
88 -6 0 -6 -6 1 -14z"/>
<path d="M2796 1987 c3 -9 2 -17 -3 -17 -5 0 -9 -13 -9 -28 0 -16 5 -29 12
-29 13 0 14 70 1 83 -4 5 -5 1 -1 -9z"/>
<path d="M2874 1970 c2 -16 0 -30 -4 -30 -13 0 -5 -53 8 -58 10 -3 13 11 11
57 -1 34 -6 61 -10 61 -5 0 -7 -13 -5 -30z"/>
<path d="M2280 1986 c0 -2 7 -7 16 -10 8 -3 12 -2 9 4 -6 10 -25 14 -25 6z"/>
<path d="M2700 1954 c0 -8 6 -11 15 -8 8 4 15 9 15 13 0 4 -7 8 -15 8 -8 0
-15 -6 -15 -13z"/>
<path d="M1931 1916 c2 -25 0 -46 -5 -46 -16 0 6 -17 31 -24 30 -9 34 19 11
66 -28 57 -41 58 -37 4z"/>
<path d="M3042 1916 c-35 -69 -30 -86 22 -67 25 10 26 19 12 80 -8 36 -11 35
-34 -13z"/>
<path d="M1745 1801 c65 -66 121 -118 123 -116 3 2 -5 19 -16 37 -12 18 -36
60 -54 92 -33 60 -65 83 -143 100 -25 6 -12 -11 90 -113z"/>
<path d="M2360 1908 c0 -8 6 -22 14 -33 15 -22 16 -25 16 -56 0 -11 4 -18 9
-14 5 3 12 1 16 -4 6 -10 56 -7 75 4 5 3 10 2 10 -2 0 -5 23 -9 52 -8 46 0 54
3 65 25 7 14 13 34 13 46 0 11 5 25 12 32 9 9 9 12 0 12 -7 0 -12 -5 -12 -11
0 -5 -5 -7 -12 -3 -7 4 -24 9 -37 10 -20 2 -22 1 -11 -6 8 -5 23 -10 33 -10
19 0 20 -6 6 -35 -9 -19 -9 -19 -5 2 3 16 -2 23 -21 28 -13 3 -28 3 -32 0 -5
-3 -11 2 -15 10 -3 8 -13 15 -23 15 -16 -1 -16 -2 -2 -13 21 -16 13 -36 -11
-30 -11 3 -17 9 -14 14 3 5 0 9 -6 9 -6 0 -9 4 -6 9 3 5 -13 8 -37 6 -23 -1
-50 2 -59 7 -13 6 -18 5 -18 -4z m84 -14 c8 -3 12 -12 9 -21 -4 -10 -2 -14 5
-9 6 3 14 2 17 -4 4 -6 3 -10 -2 -9 -18 3 -56 -1 -51 -6 2 -3 16 -6 31 -7 29
-3 27 -11 -3 -13 -11 -1 -25 4 -31 12 -6 7 -8 13 -4 13 4 0 2 6 -4 14 -10 12
-8 13 11 9 23 -5 23 -5 3 10 -20 16 -10 22 19 11z"/>
<path d="M3309 1902 c-52 -19 -79 -38 -79 -57 0 -7 -7 -18 -15 -25 -8 -7 -12
-16 -9 -21 3 -5 2 -9 -3 -9 -9 0 -67 -99 -61 -105 2 -2 57 50 123 116 66 65
113 119 105 118 -8 0 -36 -8 -61 -17z"/>
<path d="M2294 1904 c-8 -3 -9 -18 -3 -47 4 -23 8 -45 9 -48 0 -4 13 -9 29
-11 21 -3 28 -1 24 9 -3 7 -8 13 -12 13 -3 0 -7 10 -8 23 -6 59 -13 71 -39 61z"/>
<path d="M2687 1897 c3 -5 1 -12 -5 -16 -5 -3 -12 -17 -13 -31 -2 -14 -8 -28
-14 -32 -13 -10 0 -20 29 -23 18 -2 25 2 29 21 2 13 0 24 -5 24 -5 0 -2 7 6
16 18 17 21 28 6 19 -5 -3 -10 2 -10 13 0 10 -7 19 -15 19 -8 0 -11 -5 -8 -10z"/>
<path d="M3275 1780 c-71 -71 -127 -131 -124 -134 5 -5 195 57 204 66 7 7 56
198 51 198 -1 0 -60 -58 -131 -130z"/>
<path d="M1604 1885 c3 -11 10 -42 16 -68 22 -103 28 -109 128 -141 51 -16 94
-27 97 -25 2 3 -52 61 -121 129 -69 69 -123 116 -120 105z"/>
<path d="M2210 1859 c0 -45 13 -79 31 -79 10 0 21 5 24 10 3 6 1 10 -5 10 -6
0 -9 4 -5 9 3 5 1 12 -3 15 -5 3 -7 17 -5 30 4 20 1 25 -16 23 -12 -1 -21 -8
-21 -18z"/>
<path d="M2760 1870 c0 -6 6 -8 13 -5 6 4 3 -1 -7 -9 -11 -9 -16 -16 -12 -16
5 0 3 -6 -3 -14 -9 -11 -9 -15 1 -19 11 -4 10 -6 0 -6 -21 -1 -3 -21 19 -21
11 0 18 4 14 9 -3 5 -1 12 3 15 5 3 9 20 8 38 -1 23 -6 34 -18 36 -10 2 -18
-2 -18 -8z"/>
<path d="M3165 1854 c-44 -16 -55 -28 -48 -55 3 -11 -1 -27 -8 -36 -10 -12
-10 -14 -1 -9 8 4 12 1 12 -10 0 -13 4 -12 18 7 18 22 74 120 69 118 -1 0 -20
-7 -42 -15z"/>
<path d="M1812 1853 c19 -45 64 -123 73 -127 18 -7 13 104 -5 113 -24 13 -72
23 -68 14z"/>
<path d="M2127 1843 c-4 -3 -7 -17 -7 -30 0 -35 27 -29 28 7 1 29 -7 37 -21
23z"/>
<path d="M2860 1813 c1 -36 1 -37 16 -18 17 22 15 46 -3 53 -9 2 -13 -8 -13
-35z"/>
<path d="M1920 1798 c0 -13 -3 -34 -7 -48 -7 -25 -6 -25 25 5 35 33 40 50 16
59 -27 10 -34 7 -34 -16z"/>
<path d="M3046 1807 c-16 -11 -15 -15 14 -42 l30 -29 0 42 c0 45 -12 53 -44
29z"/>
<path d="M2017 1782 c-2 -4 -5 -24 -6 -44 -3 -41 11 -49 43 -25 24 17 17 58
-11 68 -12 4 -24 5 -26 1z"/>
<path d="M2958 1783 c-25 -6 -24 -59 1 -73 35 -18 42 -12 39 32 -3 42 -10 49
-40 41z"/>
<path d="M1943 1719 c-37 -34 -42 -49 -15 -49 27 1 47 22 50 53 1 15 1 27 -1
27 -1 0 -17 -14 -34 -31z"/>
<path d="M2316 1743 c-1 -2 6 -30 17 -63 18 -55 22 -60 49 -60 28 0 29 2 23
33 -15 70 -32 97 -60 95 -14 -1 -27 -4 -29 -5z"/>
<path d="M2438 1742 c-22 -4 -22 -16 -2 -76 l16 -47 51 3 50 3 19 54 c10 30
15 57 12 60 -6 6 -118 9 -146 3z"/>
<path d="M2615 1695 c-10 -27 -20 -56 -23 -63 -3 -10 4 -13 29 -10 30 3 35 7
43 41 5 20 13 37 18 37 4 0 8 11 8 24 0 20 -5 23 -29 22 -25 -1 -31 -7 -46
-51z"/>
<path d="M2725 1742 c-3 -3 -5 -12 -5 -21 0 -9 -7 -29 -15 -45 -8 -15 -15 -35
-15 -42 0 -43 76 21 86 73 5 27 3 31 -20 35 -14 3 -28 3 -31 0z"/>
<path d="M2235 1708 c8 -36 51 -88 72 -88 14 0 17 12 6 24 -4 4 -8 13 -9 19 0
7 -6 27 -13 45 -10 24 -19 32 -38 32 -23 0 -24 -3 -18 -32z"/>
<path d="M3035 1715 c3 -31 6 -34 34 -40 28 -5 27 16 -2 43 -30 28 -36 28 -32
-3z"/>
<path d="M1510 1726 c0 -2 28 -22 61 -46 56 -39 61 -41 54 -19 -8 27 -23 38
-75 56 -39 14 -40 14 -40 9z"/>
<path d="M3441 1711 c-40 -16 -70 -46 -58 -57 3 -3 30 11 61 32 76 50 75 57
-3 25z"/>
<path d="M1580 1618 c47 -48 86 -86 87 -84 1 1 -1 15 -5 30 -6 20 -31 45 -87
84 l-80 56 85 -86z"/>
<path d="M2857 1693 c-10 -9 -9 -23 1 -23 5 0 9 7 9 15 0 17 -1 18 -10 8z"/>
<path d="M2895 1690 c-3 -5 -4 -10 -1 -10 3 0 -1 -15 -9 -34 -16 -39 -10 -70
12 -62 8 3 17 6 19 6 2 0 4 22 4 49 0 48 -12 72 -25 51z"/>
<path d="M2090 1671 c0 -10 -3 -32 -6 -48 -5 -25 -2 -31 14 -35 27 -8 42 9 32
36 -9 24 -10 30 -10 51 0 8 -7 15 -15 15 -8 0 -15 -8 -15 -19z"/>
<path d="M3419 1640 c-55 -40 -89 -84 -76 -97 2 -1 36 31 77 72 41 41 72 75
70 75 -3 -1 -35 -23 -71 -50z"/>
<path d="M1664 1668 c-10 -16 31 -72 74 -102 l43 -30 36 37 c20 20 35 38 33
40 -15 13 -182 63 -186 55z"/>
<path d="M2018 1673 c-23 -6 -24 -49 -2 -57 28 -11 43 -6 42 12 0 9 1 23 3 31
4 16 -15 22 -43 14z"/>
<path d="M2948 1645 c4 -37 12 -41 42 -25 24 13 15 46 -13 54 -33 9 -33 9 -29
-29z"/>
<path d="M3253 1649 c-51 -16 -93 -33 -93 -37 0 -5 15 -23 34 -41 l35 -34 47
34 c32 23 51 46 60 72 7 20 12 37 11 36 -1 0 -44 -14 -94 -30z"/>
<path d="M2190 1643 c0 -18 5 -33 10 -33 13 0 13 30 0 50 -7 11 -10 7 -10 -17z"/>
<path d="M2805 1655 c-3 -8 -7 -22 -10 -30 -2 -8 0 -15 5 -15 6 0 10 3 11 8 0
4 2 17 5 30 4 25 -4 30 -11 7z"/>
<path d="M2850 1645 c0 -8 4 -15 10 -15 5 0 7 7 4 15 -4 8 -8 15 -10 15 -2 0
-4 -7 -4 -15z"/>
<path d="M3070 1587 c-31 -16 -37 -44 -13 -62 35 -27 53 -19 53 24 0 47 -8 54
-40 38z"/>
<path d="M1899 1583 c0 -5 -2 -23 -3 -40 -2 -20 1 -33 8 -33 33 1 54 14 59 37
3 19 -1 26 -20 34 -29 11 -43 11 -44 2z"/>
<path d="M2275 1580 c3 -5 11 -10 16 -10 6 0 7 5 4 10 -3 6 -11 10 -16 10 -6
0 -7 -4 -4 -10z"/>
<path d="M2380 1580 c0 -5 7 -10 15 -10 8 0 15 5 15 10 0 6 -7 10 -15 10 -8 0
-15 -4 -15 -10z"/>
<path d="M2474 1581 c7 -11 66 -12 66 -2 0 4 -16 8 -36 9 -21 2 -33 -1 -30 -7z"/>
<path d="M2575 1581 c-2 -4 9 -7 26 -7 16 0 29 3 29 7 0 3 -11 7 -25 7 -14 0
-27 -4 -30 -7z"/>
<path d="M2720 1580 c0 -5 5 -10 10 -10 6 0 10 5 10 10 0 6 -4 10 -10 10 -5 0
-10 -4 -10 -10z"/>
<path d="M1822 1547 l-24 -25 22 -12 c27 -15 32 -10 28 30 l-3 32 -23 -25z"/>
<path d="M3150 1530 c0 -44 8 -49 33 -22 15 16 15 20 1 40 -23 33 -34 27 -34
-18z"/>
<path d="M2275 1539 c-6 -9 52 -49 73 -49 14 0 16 19 4 38 -10 15 -69 24 -77
11z"/>
<path d="M2498 1543 c-21 -5 -21 -5 -6 -55 l12 -40 13 43 c13 46 9 58 -19 52z"/>
<path d="M1720 1536 c0 -2 7 -9 15 -16 9 -7 15 -8 15 -2 0 5 -7 12 -15 16 -8
3 -15 4 -15 2z"/>
<path d="M2080 1528 c0 -16 51 -68 66 -68 19 0 22 21 6 52 -10 21 -21 28 -43
28 -16 0 -29 -5 -29 -12z"/>
<path d="M2425 1505 c22 -18 41 -33 42 -31 2 2 -2 17 -8 34 -9 27 -16 32 -42
32 l-32 -1 40 -34z"/>
<path d="M2545 1508 c-7 -18 -12 -35 -10 -37 5 -5 73 52 74 62 1 4 -10 7 -24
7 -20 0 -29 -8 -40 -32z"/>
<path d="M2653 1523 c-3 -10 -8 -22 -11 -27 -5 -9 26 -1 71 17 39 17 34 27
-13 27 -30 0 -42 -5 -47 -17z"/>
<path d="M2865 1530 c-4 -6 -11 -7 -17 -4 -7 5 -7 1 -1 -11 6 -10 8 -26 6 -36
-7 -25 8 -24 41 2 34 27 35 59 2 59 -14 0 -28 -5 -31 -10z"/>
<path d="M3297 1520 c-3 -11 -1 -20 4 -20 5 0 9 9 9 20 0 11 -2 20 -4 20 -2 0
-6 -9 -9 -20z"/>
<path d="M1696 1515 c4 -8 10 -15 15 -15 4 0 6 7 3 15 -4 8 -10 15 -15 15 -4
0 -6 -7 -3 -15z"/>
<path d="M3250 1520 c0 -5 5 -10 10 -10 6 0 10 5 10 10 0 6 -4 10 -10 10 -5 0
-10 -4 -10 -10z"/>
<path d="M2008 1513 c-17 -4 -26 -42 -10 -44 42 -7 62 -7 66 0 6 9 -22 52 -32
50 -4 -1 -15 -3 -24 -6z"/>
<path d="M2200 1500 c0 -33 12 -50 35 -50 31 0 37 12 20 37 -20 29 -55 37 -55
13z"/>
<path d="M2775 1508 c-11 -6 -21 -11 -21 -12 -1 -1 -5 -11 -8 -23 -7 -20 -4
-23 23 -23 29 0 31 3 31 35 0 19 -1 35 -2 35 -2 0 -12 -6 -23 -12z"/>
<path d="M2962 1508 c-7 -7 -12 -20 -12 -30 0 -14 7 -17 32 -14 38 4 48 24 22
43 -22 16 -27 16 -42 1z"/>
<path d="M1765 1490 c-7 -11 10 -19 37 -17 14 0 15 3 7 14 -13 15 -35 17 -44
3z"/>
<path d="M1934 1485 c-19 -14 -18 -14 4 -15 13 0 22 6 22 15 0 19 -1 19 -26 0z"/>
<path d="M3200 1490 c-16 -11 -15 -11 18 -15 13 -1 22 3 22 11 0 16 -18 18
-40 4z"/>
<path d="M2595 1479 c-4 -6 -5 -12 -2 -15 2 -3 7 2 10 11 7 17 1 20 -8 4z"/>
<path d="M3050 1480 c0 -5 7 -10 15 -10 8 0 15 5 15 10 0 6 -7 10 -15 10 -8 0
-15 -4 -15 -10z"/>
<path d="M2290 1465 c0 -8 3 -15 8 -16 33 -5 82 -7 82 -3 0 5 -69 34 -81 34
-5 0 -9 -7 -9 -15z"/>
<path d="M2405 1470 c3 -5 8 -10 11 -10 2 0 4 5 4 10 0 6 -5 10 -11 10 -5 0
-7 -4 -4 -10z"/>
<path d="M2661 1464 c-19 -8 -32 -17 -29 -19 9 -9 81 10 86 23 5 16 -15 15
-57 -4z"/>
<path d="M1716 1453 c-12 -12 -6 -23 13 -23 11 0 23 -4 26 -10 3 -5 14 -10 23
-10 15 1 14 3 -3 16 -32 25 -52 34 -59 27z"/>
<path d="M1910 1435 c13 -16 50 -21 50 -6 0 10 -24 21 -47 21 -13 0 -13 -3 -3
-15z"/>
<path d="M3060 1440 c-8 -5 -12 -12 -8 -15 9 -9 48 4 48 16 0 12 -21 11 -40
-1z"/>
<path d="M1982 1423 c3 -19 51 -38 73 -29 8 3 15 15 15 26 0 17 -6 20 -46 20
-37 0 -45 -3 -42 -17z"/>
<path d="M2937 1426 c-9 -24 17 -38 55 -28 48 12 43 36 -8 40 -29 2 -43 -1
-47 -12z"/>
<path d="M1840 1420 c8 -5 20 -10 25 -10 6 0 3 5 -5 10 -8 5 -19 10 -25 10 -5
0 -3 -5 5 -10z"/>
<path d="M2095 1419 c4 -6 13 -8 21 -5 8 3 14 -1 14 -9 0 -8 -7 -15 -15 -15
-24 0 -17 -20 11 -30 58 -22 74 4 28 46 -25 24 -71 34 -59 13z"/>
<path d="M2875 1420 c3 -6 -5 -14 -18 -19 -23 -9 -43 -38 -32 -49 3 -3 23 0
45 7 28 8 38 16 34 26 -4 8 -10 12 -15 9 -5 -3 -6 2 -3 10 3 9 10 13 15 10 5
-3 9 0 9 5 0 6 -9 11 -21 11 -11 0 -17 -5 -14 -10z"/>
<path d="M1895 1401 c-3 -6 4 -15 15 -21 20 -11 21 -10 10 9 -12 23 -16 25
-25 12z"/>
<path d="M2220 1401 c0 -19 30 -39 50 -34 25 7 34 19 20 28 -20 12 -70 16 -70
6z"/>
<path d="M2315 1400 c-4 -6 5 -10 20 -10 15 0 24 4 20 10 -3 6 -12 10 -20 10
-8 0 -17 -4 -20 -10z"/>
<path d="M2635 1400 c3 -5 17 -10 31 -10 14 0 22 4 19 10 -3 6 -17 10 -31 10
-14 0 -22 -4 -19 -10z"/>
<path d="M2720 1390 c0 -24 41 -28 59 -7 14 18 4 27 -31 27 -21 0 -28 -5 -28
-20z"/>
<path d="M3085 1390 c-18 -20 -18 -21 5 -12 13 5 26 14 28 20 6 19 -13 14 -33
-8z"/>
<path d="M2486 1379 c-19 -28 -12 -40 21 -35 34 7 34 7 13 34 l-19 22 -15 -21z"/>
<path d="M2430 1381 c0 -17 18 -21 24 -6 3 9 0 15 -9 15 -8 0 -15 -4 -15 -9z"/>
<path d="M2550 1375 c7 -8 16 -12 21 -9 13 8 1 24 -18 24 -13 0 -13 -3 -3 -15z"/>
<path d="M2352 1361 c-11 -7 -11 -9 1 -14 21 -8 50 -2 55 11 4 14 -36 16 -56
3z"/>
<path d="M2600 1360 c0 -11 3 -12 43 -15 29 -2 36 9 11 19 -24 9 -54 7 -54 -4z"/>
<path d="M2955 1350 c-3 -6 1 -7 9 -4 18 7 21 14 7 14 -6 0 -13 -4 -16 -10z"/>
<path d="M2120 1301 c-18 -12 -16 -15 44 -35 51 -17 89 -21 71 -8 -5 4 -15 16
-21 27 -12 22 -69 32 -94 16z"/>
<path d="M2260 1284 c34 -40 61 -64 71 -64 31 0 -30 73 -71 85 l-25 7 25 -28z"/>
<path d="M2350 1295 c0 -5 4 -16 9 -23 6 -11 10 -11 18 0 24 32 24 38 -1 36
-15 -1 -26 -7 -26 -13z"/>
<path d="M2460 1299 c0 -7 5 -29 12 -51 9 -31 16 -38 32 -36 22 3 52 70 40 89
-8 13 -84 11 -84 -2z"/>
<path d="M2610 1301 c0 -14 28 -33 40 -26 20 12 10 35 -15 35 -14 0 -25 -4
-25 -9z"/>
<path d="M2725 1298 c-31 -18 -55 -49 -55 -72 0 -17 7 -13 45 24 56 55 61 77
10 48z"/>
<path d="M2798 1292 c-7 -9 -26 -26 -41 -35 -16 -10 -26 -21 -23 -24 3 -3 12
0 20 6 8 7 28 14 44 16 16 2 47 11 68 20 35 15 37 18 19 25 -34 14 -73 11 -87
-8z"/>
<path d="M2406 1273 c-23 -32 -12 -56 28 -61 30 -4 30 -1 5 66 -10 27 -10 27
-33 -5z"/>
<path d="M2567 1283 c-11 -19 -17 -72 -9 -77 5 -3 21 3 36 15 24 19 25 21 10
45 -17 24 -29 30 -37 17z"/>
<path d="M2497 1183 c-3 -5 -28 -8 -56 -6 -52 3 -56 -3 -33 -42 11 -19 11 -19
12 5 0 18 3 21 9 11 5 -8 11 -9 15 -3 10 16 115 7 129 -12 17 -22 45 1 38 31
-6 21 -8 22 -33 8 -17 -8 -28 -10 -28 -3 0 5 -6 8 -14 5 -7 -3 -18 -1 -24 5
-6 6 -12 6 -15 1z"/>
</g>
</svg>
